<svg width="88" height="85" viewBox="0 0 88 85" fill="none" xmlns="http://www.w3.org/2000/svg">
<g id="devicon-plain:axios-wordmark" filter="url(#filter0_d_76_110)">
<rect width="80" height="80" transform="translate(4)" fill="white"/>
<path id="Vector" d="M43.6338 35.1375L40.7788 37.4625H42.6431V45.0225L43.6338 44.225V35.1375ZM44.4563 43.55L47.3619 41.1656H45.445V33.7781L44.4569 34.4669L44.4563 43.55ZM80.415 36.495C80.7444 36.6662 80.9812 36.8113 81.1263 36.9294L82.1531 34.9744C81.64 34.6581 81.0206 34.3756 80.2969 34.125C79.5856 33.875 78.8156 33.75 77.9863 33.75C77.1963 33.75 76.4656 33.8812 75.7944 34.145C75.1356 34.4081 74.6094 34.7969 74.2144 35.31C73.8325 35.8237 73.6419 36.4619 73.6419 37.2256C73.6419 38.0819 73.9112 38.74 74.4512 39.2006C75.0044 39.6481 75.8469 40.0169 76.9794 40.3069C77.8875 40.5431 78.6181 40.7606 79.1712 40.9581C79.7375 41.1425 80.0206 41.4519 80.0206 41.8862C80.0206 42.5312 79.4144 42.8538 78.2038 42.8538C77.5975 42.8538 77.025 42.7819 76.485 42.6369C75.9936 42.5103 75.5172 42.3315 75.0638 42.1037C74.6688 41.8931 74.3856 41.7019 74.2138 41.5306L73.1481 43.6044C73.8325 44.0387 74.6156 44.3813 75.4981 44.6313C76.38 44.8813 77.2688 45.0063 78.1637 45.0063C78.9406 45.0063 79.665 44.9012 80.3363 44.6906C81.0075 44.4669 81.5475 44.1113 81.9556 43.6244C82.3769 43.1244 82.5875 42.4656 82.5875 41.6494C82.5875 40.9781 82.4294 40.4381 82.1138 40.03C81.8106 39.6087 81.37 39.2731 80.7906 39.0225C80.2244 38.7725 79.5531 38.5487 78.7762 38.3512C77.8944 38.1406 77.2225 37.95 76.7619 37.7787C76.3144 37.6075 76.0906 37.3181 76.0906 36.91C76.0906 36.2119 76.7094 35.8631 77.9469 35.8631C78.4075 35.8631 78.855 35.9287 79.2894 36.0606C79.7244 36.1794 80.0994 36.3237 80.415 36.495ZM59.6331 44.9475C58.7644 44.9475 57.9744 44.7956 57.2631 44.4931C56.5754 44.1934 55.9515 43.7644 55.4256 43.2294C54.921 42.7029 54.5193 42.0867 54.2412 41.4125C53.9677 40.7553 53.8267 40.0506 53.8262 39.3388C53.8262 38.6144 53.9712 37.9169 54.2612 37.245C54.5484 36.5777 54.9647 35.9738 55.4862 35.4681C56.0187 34.9376 56.6488 34.5153 57.3419 34.2244C58.0525 33.9212 58.8294 33.77 59.6719 33.77C60.5406 33.77 61.3312 33.9344 62.0425 34.2637C62.7295 34.5627 63.3479 34.9994 63.8594 35.5469C64.3664 36.0641 64.7686 36.6744 65.0437 37.3444C65.3161 37.9949 65.4571 38.6929 65.4587 39.3981C65.4596 40.1185 65.3117 40.8313 65.0244 41.4919C64.7307 42.1555 64.3152 42.7582 63.7994 43.2688C63.2721 43.7916 62.6485 44.2073 61.9631 44.4931C61.2525 44.7956 60.4756 44.9475 59.6331 44.9475ZM56.2356 39.3587C56.2356 39.9512 56.3744 40.5169 56.6512 41.0569C56.9223 41.578 57.3234 42.0202 57.8156 42.3406C58.3294 42.6694 58.9412 42.8344 59.6525 42.8344C60.3762 42.8344 60.9888 42.6631 61.4888 42.3206C61.9749 41.9819 62.3687 41.5271 62.6344 40.9975C62.8921 40.4824 63.0275 39.9147 63.03 39.3388C63.03 38.7463 62.8912 38.1869 62.615 37.66C62.343 37.1381 61.9328 36.701 61.4294 36.3963C60.9294 36.0669 60.3306 35.9025 59.6331 35.9025C58.9087 35.9025 58.2894 36.0737 57.7762 36.4162C57.2882 36.7444 56.8936 37.1934 56.6306 37.7194C56.3718 38.2271 56.2365 38.7888 56.2356 39.3587ZM5.25 44.8688L10.0687 33.8287H12.0238L16.8225 44.8681H14.295L13.1887 42.2813H8.90375L7.7975 44.8688H5.25ZM11.0563 36.7319L9.43688 40.2075H12.6163L11.0563 36.7319ZM26.1594 33.8287L29.2006 37.7394L32.2419 33.8287H34.8288L30.4644 39.4175L34.6906 44.8681H32.1031L29.2006 41.1163L26.3169 44.8681H23.6906L27.9363 39.4181L23.5525 33.8287H26.1594Z" fill="#3B4045"/>
</g>
<defs>
<filter id="filter0_d_76_110" x="0" y="0" width="88" height="88" filterUnits="userSpaceOnUse" color-interpolation-filters="sRGB">
<feFlood flood-opacity="0" result="BackgroundImageFix"/>
<feColorMatrix in="SourceAlpha" type="matrix" values="0 0 0 0 0 0 0 0 0 0 0 0 0 0 0 0 0 0 127 0" result="hardAlpha"/>
<feOffset dy="4"/>
<feGaussianBlur stdDeviation="2"/>
<feComposite in2="hardAlpha" operator="out"/>
<feColorMatrix type="matrix" values="0 0 0 0 0 0 0 0 0 0 0 0 0 0 0 0 0 0 0.25 0"/>
<feBlend mode="normal" in2="BackgroundImageFix" result="effect1_dropShadow_76_110"/>
<feBlend mode="normal" in="SourceGraphic" in2="effect1_dropShadow_76_110" result="shape"/>
</filter>
</defs>
</svg>
