<svg width="31" height="30" viewBox="0 0 31 30" fill="none" xmlns="http://www.w3.org/2000/svg">
<g clip-path="url(#clip0_193_269)">
<path d="M23.4688 0H7.53125C3.648 0 0.5 3.148 0.5 7.03125V22.9688C0.5 26.852 3.648 30 7.53125 30H23.4688C27.352 30 30.5 26.852 30.5 22.9688V7.03125C30.5 3.148 27.352 0 23.4688 0Z" fill="#242938"/>
<path d="M14.7324 3.28755C14.682 3.29212 14.5216 3.30818 14.3772 3.31955C11.0484 3.61966 7.93027 5.41591 5.95531 8.17662C4.85574 9.71166 4.15227 11.4528 3.8866 13.2972C3.79273 13.9411 3.78125 14.1313 3.78125 15.0041C3.78125 15.877 3.79273 16.0672 3.88672 16.7109C4.52352 21.112 7.65547 24.8099 11.903 26.1799C12.6637 26.4251 13.4655 26.5923 14.3773 26.6931C14.7325 26.732 16.2675 26.732 16.6227 26.6931C18.1966 26.5189 19.53 26.1295 20.845 25.4581C21.0466 25.3551 21.0856 25.3276 21.0581 25.3047C21.0398 25.2909 20.1806 24.1385 19.1497 22.7456L17.2756 20.214L14.9272 16.7385C13.6351 14.8277 12.5721 13.2651 12.5628 13.2651C12.5537 13.2629 12.5445 14.8071 12.54 16.6926C12.533 19.994 12.5308 20.1269 12.4896 20.2047C12.43 20.317 12.3842 20.3628 12.2879 20.4133C12.2146 20.4499 12.1504 20.4568 11.8045 20.4568H11.4082L11.3027 20.3904C11.2374 20.3495 11.1844 20.2917 11.1492 20.2231L11.1011 20.12L11.1058 15.5265L11.1126 10.9306L11.1836 10.8412C11.2203 10.7932 11.2982 10.7313 11.3532 10.7015C11.4471 10.6557 11.4838 10.6511 11.8801 10.6511C12.3475 10.6511 12.4254 10.6694 12.5469 10.8023C12.5812 10.839 13.8527 12.7543 15.374 15.0614C16.9142 17.3966 18.4553 19.7311 19.9973 22.0651L21.8531 24.8763L21.9471 24.8144C22.7786 24.2737 23.6585 23.5039 24.3549 22.702C25.8372 20.9997 26.7927 18.9241 27.1134 16.7109C27.2073 16.0672 27.2188 15.877 27.2188 15.0041C27.2188 14.1313 27.2073 13.9411 27.1134 13.2972C26.4765 8.89615 23.3445 5.19841 19.097 3.82837C18.3478 3.58544 17.5505 3.41822 16.657 3.31744C16.437 3.29447 14.9226 3.26939 14.7325 3.28767M19.53 10.3762C19.6399 10.4312 19.7293 10.5365 19.7614 10.6465C19.7797 10.7061 19.7843 11.9799 19.7797 14.8506L19.7728 18.9699L19.0466 17.8564L18.318 16.743V13.7486C18.318 11.8127 18.3271 10.7244 18.3409 10.6717C18.3775 10.5435 18.4577 10.4427 18.5677 10.383C18.6616 10.335 18.6961 10.3303 19.0557 10.3303C19.3948 10.3303 19.4544 10.335 19.53 10.3762Z" fill="white"/>
</g>
<defs>
<clipPath id="clip0_193_269">
<rect width="30" height="30" fill="white" transform="translate(0.5)"/>
</clipPath>
</defs>
</svg>
