<svg width="88" height="85" viewBox="0 0 88 85" fill="none" xmlns="http://www.w3.org/2000/svg">
<g id="simple-icons:recoil" clipPath="url(#clip0_76_103)" filter="url(#filter0_d_76_103)">
<rect width="80" height="80" transform="translate(4)" fill="white"/>
<path id="Vector" d="M60.9667 29.5399C60.5641 27.4377 59.5018 25.5189 57.9342 24.0621C56.3666 22.6054 54.3754 21.6868 52.25 21.4399L51.4333 21.3399C50.0976 21.1705 48.8692 20.5205 47.9778 19.5114C47.0864 18.5022 46.5931 17.203 46.59 15.8565V13.0032C48.0272 12.4064 49.2145 11.332 49.9515 9.96134C50.6884 8.59069 50.9299 7.00776 50.6352 5.47972C50.3404 3.95168 49.5275 2.57213 48.3336 1.57393C47.1397 0.57573 45.638 0.0200149 44.0819 0.000588177C42.5258 -0.0188386 41.0107 0.499213 39.7923 1.4673C38.5738 2.43538 37.7267 3.79421 37.3939 5.31441C37.0611 6.83461 37.263 8.42309 37.9655 9.8117C38.668 11.2003 39.8281 12.304 41.25 12.9365V15.8499C41.2519 18.4984 42.2196 21.0554 43.9717 23.0412C45.7237 25.027 48.1397 26.3054 50.7667 26.6365L51.5833 26.7432C54.13 27.0632 55.3967 28.9432 55.7367 30.5932C56.07 32.2432 55.6367 34.4699 53.41 35.7599C52.3334 36.3855 51.1333 36.7689 49.8933 36.8832L37.6267 38.0365C35.618 38.2266 33.6738 38.8473 31.9267 39.8565C30.0623 40.9103 28.5825 42.5312 27.7025 44.4837C26.8225 46.4362 26.5881 48.6184 27.0333 50.7132C27.4359 52.8153 28.4982 54.7342 30.0658 56.1909C31.6335 57.6476 33.6247 58.5662 35.75 58.8132L36.5667 58.9199C37.9019 59.0891 39.1298 59.7386 40.0211 60.7471C40.9124 61.7555 41.4061 63.054 41.41 64.3999V66.9899C39.9724 67.5903 38.786 68.6685 38.0512 70.0423C37.3163 71.4161 37.0781 73.0014 37.3767 74.5305C37.6752 76.0596 38.4923 77.4389 39.69 78.4354C40.8876 79.4319 42.3924 79.9846 43.9503 80.0001C45.5083 80.0157 47.0238 79.4932 48.2411 78.5208C49.4584 77.5484 50.3029 76.1858 50.6319 74.6629C50.961 73.1401 50.7545 71.5503 50.0472 70.1621C49.34 68.7739 48.1754 67.6722 46.75 67.0432V64.3999C46.748 61.7508 45.7798 59.1934 44.0271 57.2075C42.2744 55.2216 39.8576 53.9436 37.23 53.6132L36.4167 53.5065C33.87 53.1865 32.6 51.3065 32.2633 49.6565C31.93 48.0065 32.3633 45.7799 34.5867 44.4899C35.6653 43.8633 36.8678 43.4799 38.11 43.3665L50.3767 42.2165C52.3854 42.0265 54.3295 41.4057 56.0767 40.3965C57.9393 39.3407 59.4174 37.719 60.2967 35.7663C61.1759 33.8136 61.4106 31.6316 60.9667 29.5365V29.5399ZM52.1233 45.2332C51.6417 45.3185 51.1568 45.3852 50.67 45.4332L45.5267 45.9232L51.96 52.9865C53.9044 55.1188 54.9816 57.9008 54.98 60.7865H60.3333C60.3354 56.5685 58.76 52.5022 55.9167 49.3865L52.1233 45.2332ZM35.4467 34.8665C36.0475 34.7417 36.6553 34.6526 37.2667 34.5999L42.0233 34.1465L35.5633 27.0665C33.6201 24.9338 32.5442 22.1518 32.5467 19.2665H27.21C27.21 23.4899 28.7767 27.5432 31.6233 30.6665L35.4467 34.8665Z" fill="#3B4045"/>
</g>
<defs>
<filter id="filter0_d_76_103" x="0" y="0" width="88" height="88" filterUnits="userSpaceOnUse" color-interpolation-filters="sRGB">
<feFlood flood-opacity="0" result="BackgroundImageFix"/>
<feColorMatrix in="SourceAlpha" type="matrix" values="0 0 0 0 0 0 0 0 0 0 0 0 0 0 0 0 0 0 127 0" result="hardAlpha"/>
<feOffset dy="4"/>
<feGaussianBlur stdDeviation="2"/>
<feComposite in2="hardAlpha" operator="out"/>
<feColorMatrix type="matrix" values="0 0 0 0 0 0 0 0 0 0 0 0 0 0 0 0 0 0 0.25 0"/>
<feBlend mode="normal" in2="BackgroundImageFix" result="effect1_dropShadow_76_103"/>
<feBlend mode="normal" in="SourceGraphic" in2="effect1_dropShadow_76_103" result="shape"/>
</filter>
<clipPath id="clip0_76_103">
<rect width="80" height="80" fill="white" transform="translate(4)"/>
</clipPath>
</defs>
</svg>
