<svg width="30" height="30" viewBox="0 0 30 30" fill="none" xmlns="http://www.w3.org/2000/svg">
<path fill-rule="evenodd" clip-rule="evenodd" d="M15 1.875C17.5959 1.875 20.1335 2.64477 22.2919 4.08696C24.4503 5.52915 26.1325 7.579 27.1259 9.97728C28.1193 12.3756 28.3792 15.0146 27.8728 17.5606C27.3664 20.1066 26.1163 22.4452 24.2808 24.2808C22.4452 26.1163 20.1066 27.3664 17.5606 27.8728C15.0146 28.3792 12.3756 28.1193 9.97728 27.1259C7.579 26.1325 5.52915 24.4503 4.08696 22.2919C2.64477 20.1335 1.875 17.5959 1.875 15C1.875 11.519 3.25781 8.18064 5.71922 5.71922C8.18064 3.25781 11.519 1.875 15 1.875Z" fill="#CC6699"/>
<path d="M23.2331 7.4925C22.6388 5.16187 18.7734 4.39875 15.1153 5.69437C12.8243 6.46409 10.7076 7.67821 8.88656 9.26719C6.87188 11.1516 6.55031 12.7922 6.6825 13.4775C7.15125 15.8962 10.4634 17.4769 11.8256 18.6497V18.6562C11.4244 18.8541 8.48438 20.3437 7.79438 21.8625C7.06875 23.4675 7.90969 24.6187 8.4675 24.7734C9.30499 24.9751 10.1846 24.9094 10.9829 24.5858C11.7812 24.2621 12.4581 23.6967 12.9188 22.9687C13.2997 22.3791 13.538 21.7088 13.6148 21.011C13.6916 20.3132 13.6048 19.6071 13.3613 18.9487C14.0172 18.7811 14.6995 18.742 15.3703 18.8334C17.6728 19.1025 18.1247 20.5397 18.0384 21.1416C17.9979 21.3558 17.9116 21.5588 17.7856 21.7367C17.6596 21.9147 17.4968 22.0634 17.3081 22.1728C17.1469 22.2731 17.0972 22.3069 17.1113 22.3819C17.1309 22.4897 17.205 22.4859 17.3428 22.4625C17.6888 22.3535 17.9937 22.1423 18.2173 21.8566C18.4409 21.5709 18.5727 21.2242 18.5953 20.8622C18.6506 19.4559 17.2997 17.8753 14.9072 17.9156C14.2123 17.8952 13.5188 17.9902 12.855 18.1969L12.7538 18.0844C11.2744 16.5066 8.54063 15.39 8.65594 13.2684C8.69813 12.4969 8.96625 10.4662 13.9059 8.0025C17.9559 5.98406 21.1978 6.54 21.7584 7.77094C22.5591 9.52969 20.0259 12.7969 15.8203 13.2684C15.3555 13.3628 14.8754 13.3513 14.4156 13.2348C13.9558 13.1182 13.5282 12.8997 13.1644 12.5953C12.9431 12.3516 12.9103 12.3412 12.8278 12.3862C12.6938 12.4603 12.7791 12.6759 12.8278 12.8034C12.9889 13.0936 13.2063 13.3488 13.4672 13.5538C13.7282 13.7589 14.0275 13.9099 14.3475 13.9978C16.0011 14.3566 17.7256 14.186 19.2769 13.5103C21.8278 12.5269 23.8172 9.78469 23.2331 7.4925ZM12.3919 19.3716C12.5772 20.0136 12.5677 20.6962 12.3647 21.3328C12.3428 21.3991 12.3188 21.4647 12.2925 21.5297C12.2663 21.5947 12.2378 21.6572 12.2072 21.7172C12.0484 22.0394 11.8441 22.3371 11.6006 22.6012C10.8384 23.4328 9.7725 23.7478 9.31594 23.4825C8.82281 23.1966 9.06938 22.0238 9.95344 21.0891C10.633 20.4176 11.4161 19.8599 12.2728 19.4372L12.3919 19.3716Z" fill="white"/>
</svg>
