<svg width="30" height="30" viewBox="0 0 30 30" fill="none" xmlns="http://www.w3.org/2000/svg">
<g clip-path="url(#clip0_9_2)">
<path d="M22.9688 0H7.03125C3.148 0 0 3.148 0 7.03125V22.9688C0 26.852 3.148 30 7.03125 30H22.9688C26.852 30 30 26.852 30 22.9688V7.03125C30 3.148 26.852 0 22.9688 0Z" fill="url(#paint0_linear_9_2)"/>
<path d="M1.34612 15.1264L7.24112 17.5152V19.1873L0.262604 15.954V14.9729L1.34612 15.1264ZM7.24112 13.1644L1.35467 15.5871L0.262721 15.7066V14.717L7.241 11.4922L7.24112 13.1644ZM28.2857 15.4677L22.22 13.1046V11.4751L29.5056 14.6999V15.6981L28.2857 15.4677ZM22.22 17.5493L28.3028 15.135L29.5056 14.9558V15.9455L22.22 19.1788V17.5493Z" fill="white"/>
<path fill-rule="evenodd" clip-rule="evenodd" d="M20.634 7.16004C20.6003 7.69512 20.3592 8.25387 20.4264 8.77406C20.8474 9.51867 21.7741 9.63738 22.5387 9.68848C23.0684 9.78317 23.0617 9.43242 23.0262 9.03844L23.0326 7.14891C22.233 7.15184 21.4332 7.14106 20.634 7.16004ZM14.3292 8.65653C13.0275 8.87754 11.708 9.49957 10.625 10.2484C9.7534 10.9268 11.3733 11.5842 11.961 11.6941C13.1434 11.7086 14.1921 10.911 14.9688 10.0832C15.2224 9.73512 15.5392 9.20227 15.2205 8.79879C14.9773 8.58785 14.6235 8.63895 14.3292 8.65653ZM17.0992 10.5498C16.0289 10.7537 15.0105 11.1948 14.1095 11.809C13.4489 12.0164 12.9045 12.7417 13.723 13.1051C14.5826 13.79 15.5788 13.6222 16.3704 13.1598C17.0953 12.7289 17.8784 12.1972 18.2138 11.3861C18.5305 10.4974 17.7132 10.4645 17.0992 10.5498ZM20.1354 13.9931C19.9361 14.8256 19.0977 15.2041 18.6517 15.8638C18.287 16.345 18.4559 16.9118 18.8711 17.2905C19.0732 17.7097 19.4276 17.944 19.8076 17.5799C20.7864 16.9145 21.0571 15.6184 21.0164 14.4954C21.0887 14.0316 20.5566 14.4509 20.1354 13.9931ZM16.4108 15.5568C15.1111 15.7792 13.8111 16.4125 12.7277 17.1601C11.8867 17.8376 13.4707 18.4702 14.0632 18.5705C15.2675 18.5722 16.3418 17.7961 17.1033 16.9146C17.3681 16.5646 17.6891 15.8848 17.1647 15.6064C16.9302 15.5071 16.658 15.5363 16.4108 15.5568Z" fill="#B956A6"/>
<path fill-rule="evenodd" clip-rule="evenodd" d="M10.625 10.2484C9.62544 10.6484 8.66122 11.134 7.70895 11.6426C7.532 12.3006 7.67391 13.1154 7.62809 13.8369C7.62458 16.8036 7.62622 19.7705 7.62575 22.7372H9.83122C10.2765 22.3179 10.8343 22.011 11.3181 21.6302C13.1807 20.2944 15.0427 18.9534 16.9028 17.6214C17.0397 17.6829 16.952 16.8162 16.6518 17.4182C15.9403 18.0877 14.996 18.6383 13.9965 18.5845C13.4293 18.398 12.515 18.0814 12.5093 17.3864C12.9086 16.9164 11.7727 17.6325 11.4619 17.735C10.4515 18.2202 9.46501 18.762 8.45251 19.2381C8.69579 18.9768 9.15095 18.7331 9.47368 18.4739C11.7791 16.819 14.084 15.1576 16.3949 13.504C16.8394 13.1919 17.2688 12.8515 17.727 12.5598C17.7688 12.7214 17.8473 11.7872 17.5065 12.3623C16.8118 13.0509 15.8748 13.5635 14.8866 13.5705C14.3307 13.4018 13.1469 12.9983 13.4105 12.2807C13.539 12.0288 12.2166 12.8175 12.8009 12.3728C13.4228 11.9183 14.0496 11.472 14.6763 11.0222C14.9929 10.9984 14.9255 9.82265 14.4954 10.5811C13.7729 11.2159 12.8237 11.7967 11.8287 11.659C11.2697 11.4981 10.599 11.1865 10.3958 10.602C10.3286 10.4616 10.7722 10.2428 10.625 10.2484ZM14.7663 10.9741C14.8668 10.9162 14.7109 11.1327 14.7663 10.9741Z" fill="#FCCC44"/>
<path fill-rule="evenodd" clip-rule="evenodd" d="M21.0819 9.46288C20.7698 10.953 20.4287 12.5127 20.1354 13.993C20.9782 15.0552 21.0599 13.322 21.2073 12.8319C21.4455 11.8076 21.7277 11.0341 21.7576 9.97359C21.8209 9.61159 21.3955 9.39245 21.0819 9.46288ZM22.0488 10.6314C22.0872 10.6601 22.0224 10.7841 22.0488 10.6314ZM21.0656 13.9728C21.1062 14.0601 21.1062 13.8854 21.0656 13.9728Z" fill="#62777F"/>
<path fill-rule="evenodd" clip-rule="evenodd" d="M21.6347 9.63164C21.8977 11.1084 21.0266 12.9026 20.7417 14.295C21.3886 13.819 21.8884 11.6592 22.0161 10.8138C22.0491 10.7171 22.0896 10.4739 22.0984 10.4651C22.1391 10.2599 22.5179 9.91218 22.5387 9.68847C22.7592 9.53285 21.4547 9.50789 21.6347 9.63164ZM21.0983 13.9728C21.0577 14.0602 21.0577 13.8854 21.0983 13.9728Z" fill="#4E5E67"/>
<path fill-rule="evenodd" clip-rule="evenodd" d="M10.647 10.273C10.2823 10.6382 10.4191 10.549 10.6906 10.2453L10.647 10.273ZM14.5915 10.4538C14.169 11.0886 12.6456 11.6195 12.4538 11.6606C13.3702 11.4889 14.2243 10.9188 14.8254 10.2511C14.7299 10.2936 14.6732 10.3936 14.5915 10.4538ZM10.3964 10.66C10.6241 11.2075 11.452 11.5712 11.8543 11.656C11.3051 11.4791 10.6586 11.1653 10.3964 10.66ZM14.7335 10.9766C14.6186 11.1123 14.2091 11.3153 13.9932 11.5145C13.5302 11.856 13.0513 12.1733 12.5936 12.5234C12.885 12.5108 13.7391 11.8728 13.3013 12.5202C13.6723 13.1587 14.48 13.6028 15.2166 13.5622C16.1892 13.4095 17.0862 12.8718 17.7309 12.1239C16.9482 12.8984 15.9135 13.6273 14.7684 13.5268C14.2143 13.3989 12.7 12.6166 13.7129 12.0683C14.0701 11.7745 14.6859 11.6207 14.7557 11.1043C14.741 11.0399 14.8611 10.9769 14.7335 10.9766ZM11.961 11.6941C12.3295 11.7423 12.3295 11.6461 11.961 11.6941ZM17.7035 12.576C16.2411 13.5948 14.8 14.6535 13.3502 15.6906C11.7073 16.8664 10.0713 18.0466 8.42883 19.2216C9.04641 19.0133 9.66516 18.6067 10.2786 18.3258C11.1236 17.8788 12.0144 17.5257 12.805 16.9828C14.368 16.0626 16.0211 15.186 17.2233 13.7782C17.4857 13.4705 17.7488 12.9751 17.7605 12.6419C17.7226 12.6526 17.7513 12.5087 17.7035 12.576ZM12.7277 17.16C12.4647 17.4573 12.3578 17.6698 12.6308 17.2917C12.626 17.3355 12.8524 17.057 12.7277 17.16ZM16.7304 17.3023C16.0373 18.033 15.0123 18.5601 14.0506 18.5957C15.1624 18.6037 16.1656 17.9437 16.9188 17.1651C16.8694 17.1054 16.7692 17.3044 16.7304 17.3023ZM16.9422 17.5319C14.6138 19.2269 12.205 20.9851 9.86872 22.674C10.2367 22.7894 11.0381 22.8436 11.4039 22.3724C12.182 21.8354 13.0568 21.4406 13.8375 20.8964C14.968 20.1628 16.1784 19.361 16.8205 18.1281C16.8511 17.9627 17.0783 17.6653 16.9422 17.5319ZM12.5109 17.6395C12.619 18.0956 13.9697 18.6191 13.8232 18.5189C13.3252 18.3443 12.8311 18.0722 12.5109 17.6395Z" fill="#DC9624"/>
</g>
<defs>
<linearGradient id="paint0_linear_9_2" x1="0" y1="30" x2="30" y2="0" gradientUnits="userSpaceOnUse">
<stop stop-color="#DB7093"/>
<stop offset="1" stop-color="#F3B661"/>
</linearGradient>
<clipPath id="clip0_9_2">
<rect width="30" height="30" fill="white"/>
</clipPath>
</defs>
</svg>
