<svg width="41" height="30" viewBox="0 0 41 30" fill="none" xmlns="http://www.w3.org/2000/svg">
<g clip-path="url(#clip0_193_273)">
<path d="M20.4999 0C15.1677 0 11.8349 3.32474 10.5019 9.97403C12.5015 6.64929 14.8344 5.40253 17.5005 6.23377C19.0216 6.70792 20.1089 8.08422 21.3124 9.6074C23.273 12.089 25.5419 14.961 30.498 14.961C35.8302 14.961 39.163 11.6363 40.496 4.98701C38.4964 8.31175 36.1636 9.55851 33.4974 8.72727C31.9763 8.25312 30.889 6.87682 29.6855 5.35364C27.7249 2.87201 25.456 0 20.4999 0ZM10.5019 14.961C5.1697 14.961 1.83692 18.2858 0.503906 24.9351C2.50351 21.6103 4.83633 20.3636 7.50252 21.1948C9.02363 21.669 10.1109 23.0453 11.3144 24.5684C13.275 27.0501 15.5439 29.9221 20.4999 29.9221C25.8322 29.9221 29.165 26.5973 30.498 19.9481C28.4984 23.2728 26.1655 24.5195 23.4994 23.6883C21.9782 23.2142 20.891 21.8379 19.6875 20.3147C17.7269 17.8331 15.458 14.961 10.5019 14.961Z" fill="url(#paint0_linear_193_273)"/>
</g>
<defs>
<linearGradient id="paint0_linear_193_273" x1="-110.594" y1="957.506" x2="3681.02" y2="2710.66" gradientUnits="userSpaceOnUse">
<stop stop-color="#2298BD"/>
<stop offset="1" stop-color="#0ED7B5"/>
</linearGradient>
<clipPath id="clip0_193_273">
<rect width="40" height="30" fill="white" transform="translate(0.5)"/>
</clipPath>
</defs>
</svg>
