<svg width="30" height="30" viewBox="0 0 30 30" fill="none" xmlns="http://www.w3.org/2000/svg">
<g clip-path="url(#clip0_1_2)">
<path d="M2.34375 0H27.6562C28.9507 0 30 1.0493 30 2.34375V27.6562C30 28.9507 28.9507 30 27.6562 30H2.34375C1.0493 30 0 28.9507 0 27.6562V2.34375C0 1.0493 1.0493 0 2.34375 0Z" fill="#3178C6"/>
<path d="M17.6388 23.4932V26.7299C18.1652 26.9996 18.7878 27.202 19.5066 27.3368C20.2253 27.4716 20.9829 27.5391 21.7792 27.5391C22.5553 27.5391 23.2925 27.4649 23.991 27.3165C24.6894 27.1682 25.3018 26.9237 25.8282 26.5833C26.3546 26.2427 26.7714 25.7977 27.0785 25.248C27.3855 24.6986 27.5391 24.0193 27.5391 23.21C27.5391 22.6233 27.4513 22.1091 27.2759 21.6675C27.1022 21.2289 26.8443 20.8286 26.5166 20.4892C26.186 20.1453 25.7895 19.8368 25.3273 19.5636C24.865 19.2905 24.3436 19.0326 23.7632 18.79C23.338 18.6146 22.9567 18.4443 22.6193 18.2791C22.2819 18.114 21.9951 17.9454 21.7589 17.7734C21.5227 17.6015 21.3404 17.4194 21.2122 17.2271C21.084 17.0349 21.0199 16.8174 21.0199 16.5748C21.0199 16.3523 21.0773 16.1517 21.192 15.973C21.3067 15.7943 21.4687 15.6409 21.6779 15.5128C21.8871 15.3848 22.1436 15.2853 22.4473 15.2143C22.7509 15.1436 23.0884 15.1082 23.4595 15.1082C23.7295 15.1082 24.0146 15.1284 24.3149 15.1689C24.6152 15.2093 24.9172 15.2716 25.221 15.356C25.5237 15.4401 25.8198 15.5466 26.1067 15.6746C26.3848 15.7979 26.6509 15.9469 26.9013 16.1196V13.0954C26.4087 12.9065 25.8705 12.7666 25.2867 12.6756C24.703 12.5846 24.0332 12.5391 23.2773 12.5391C22.508 12.5391 21.7792 12.6217 21.0908 12.7869C20.4025 12.9521 19.7968 13.21 19.2737 13.5606C18.7507 13.9114 18.3374 14.3581 18.0336 14.9009C17.73 15.4437 17.5781 16.0927 17.5781 16.8479C17.5781 17.8121 17.8565 18.6348 18.4133 19.3159C18.9701 19.997 19.8154 20.5735 20.949 21.0455C21.3676 21.2159 21.7827 21.3947 22.1941 21.5816C22.5788 21.7569 22.9112 21.9389 23.1913 22.1277C23.4714 22.3164 23.6924 22.5221 23.8543 22.7447C24.0163 22.9673 24.0973 23.2202 24.0973 23.5034C24.0986 23.7072 24.0462 23.9078 23.9454 24.085C23.8442 24.2636 23.6907 24.4187 23.4848 24.5502C23.279 24.6817 23.0225 24.7845 22.7155 24.8586C22.4085 24.9328 22.0491 24.9699 21.6374 24.97C20.9356 24.97 20.2405 24.8469 19.5521 24.6007C18.8638 24.3545 18.226 23.9854 17.6388 23.4932ZM12.244 15.4385H16.4062V12.7734H4.80469V15.4385H8.94668V27.3047H12.244V15.4385Z" fill="white"/>
</g>
<defs>
<clipPath id="clip0_1_2">
<rect width="30" height="30" fill="white"/>
</clipPath>
</defs>
</svg>
