<svg width="30" height="31" viewBox="0 0 30 31" fill="none" xmlns="http://www.w3.org/2000/svg">
<g clip-path="url(#clip0_90_414)">
<path d="M22.9688 0.5H7.03125C3.148 0.5 0 3.648 0 7.53125V23.4688C0 27.352 3.148 30.5 7.03125 30.5H22.9688C26.852 30.5 30 27.352 30 23.4688V7.53125C30 3.648 26.852 0.5 22.9688 0.5Z" fill="#F4F2ED"/>
<path d="M26.7188 21.938C26.3776 22.0672 26.0009 22.0669 25.66 21.9373C25.319 21.8076 25.0373 21.5575 24.8682 21.2343C23.8062 19.6444 22.6334 18.1262 21.5061 16.5755L21.0173 15.9239C19.6751 17.7223 18.3328 19.4489 17.1079 21.2408C16.9483 21.5498 16.6819 21.7902 16.3582 21.9172C16.0346 22.0443 15.6758 22.0494 15.3486 21.9315L20.3854 15.1746L15.7004 9.06915C16.0377 8.94737 16.4066 8.94569 16.7449 9.0644C17.0833 9.1831 17.3703 9.41492 17.5575 9.72071C18.6456 11.3107 19.8511 12.8289 21.0499 14.4383C22.2554 12.8419 23.4478 11.3172 24.562 9.74028C24.7225 9.43636 24.989 9.20203 25.311 9.08189C25.633 8.96175 25.9879 8.96418 26.3082 9.08872L24.4903 11.4996C23.6759 12.5747 22.8744 13.6563 22.0274 14.7054C21.9591 14.7665 21.9044 14.8413 21.867 14.925C21.8296 15.0086 21.8103 15.0992 21.8103 15.1908C21.8103 15.2825 21.8296 15.3731 21.867 15.4567C21.9044 15.5404 21.9591 15.6152 22.0274 15.6763C23.5847 17.7418 25.1289 19.8138 26.7188 21.938ZM3.28125 15.0899C3.41813 14.4383 3.50273 13.7281 3.69176 13.0635C4.81898 9.05626 9.41262 7.3881 12.5728 9.87071C14.4233 11.3238 14.886 13.3828 14.7948 15.7024H4.36945C4.2 19.8465 7.19074 22.3486 11.0155 21.0715C11.6359 20.8495 12.1913 20.4766 12.6316 19.9863C13.0718 19.496 13.383 18.9038 13.5371 18.2631C13.7392 17.6115 14.065 17.5008 14.6839 17.6897C14.582 18.4829 14.3016 19.2428 13.8637 19.912C13.4258 20.5813 12.8419 21.1425 12.1559 21.5536C11.0224 22.1735 9.72191 22.4191 8.44042 22.2553C7.15894 22.0914 5.96208 21.5265 5.02102 20.6414C4.09 19.5946 3.52706 18.2719 3.41812 16.8752C3.41812 16.6538 3.3334 16.4322 3.28781 16.2237C3.2835 15.8458 3.28131 15.4678 3.28125 15.0899ZM4.38246 14.8097H13.8109C13.7522 11.8059 11.8561 9.67524 9.32801 9.65579C6.51316 9.61665 4.49977 11.7017 4.3759 14.7967L4.38246 14.8097Z" fill="#0F0F0F"/>
</g>
<defs>
<clipPath id="clip0_90_414">
<rect width="30" height="30" fill="white" transform="translate(0 0.5)"/>
</clipPath>
</defs>
</svg>
