<svg width="40" height="31" viewBox="0 0 40 31" fill="none" xmlns="http://www.w3.org/2000/svg">
<path d="M21.8604 9.713C21.3367 9.72941 20.4517 9.83488 20.4517 9.87941C20.4517 9.89793 21.0754 10.1323 21.1232 10.1323C21.167 10.1323 21.891 10.4032 22.052 10.4782C22.262 10.579 22.4123 10.6704 22.3682 10.6704C22.3401 10.6704 21.5967 10.4546 21.3148 10.3639C21.0854 10.2914 20.132 10.0782 19.6679 9.99589C19.4167 9.95183 19.3104 9.93542 18.8832 9.87683C18.2532 9.79058 17.5123 9.78543 17.1901 9.86488C16.7285 9.97738 16.6248 10.1157 16.6248 10.6257C16.6248 10.9069 16.6432 11.0257 16.7248 11.2784C16.7604 11.3883 16.8604 11.63 16.907 11.7115C16.9204 11.7373 16.9642 11.817 17.0007 11.8873C17.0385 11.9569 17.1523 12.1371 17.2523 12.2846C17.8139 13.1206 18.6548 13.8174 19.8401 14.4305C20.2139 14.6227 21.2295 14.9871 21.637 15.0743C21.7407 15.0954 21.7751 15.1393 21.6907 15.1393C21.597 15.1393 20.7376 14.9616 20.5617 14.9058C20.4947 14.8836 20.4268 14.8631 20.3579 14.8444C19.7463 14.6595 18.9651 14.2786 18.3192 13.8455C17.6114 13.3731 17.0456 12.7934 16.6592 12.1446C16.4113 11.7251 16.2429 11.2364 16.2013 10.8106C16.177 10.5671 16.1514 10.5085 16.067 10.5113C16.0388 10.5113 15.7717 10.504 15.4773 10.4921C14.6767 10.4663 13.5829 10.5324 12.5001 10.6725C10.4298 10.9369 8.19604 11.5477 5.89729 12.4786C5.515 12.6339 5.1373 12.7954 4.76447 12.9631C4.72072 12.9823 4.5826 13.0453 4.45697 13.1039C4.33229 13.1625 4.18479 13.2277 4.13104 13.2532C4.01229 13.3055 2.69791 13.9746 2.54041 14.0635C2.48166 14.0956 2.31822 14.187 2.18041 14.2622C1.55635 14.6082 0.197911 15.4395 0.119786 15.5239C0.081974 15.566 0.141662 15.5871 0.222287 15.566C0.263849 15.5539 0.370099 15.5375 0.455412 15.5286C0.543224 15.5182 0.769161 15.4744 0.956974 15.4278C1.1476 15.3828 1.3526 15.3361 1.41135 15.3242C1.87635 15.2426 2.06447 15.2143 2.33635 15.184C2.45979 15.1723 2.64166 15.1512 2.74416 15.1393C4.01854 14.9991 4.62666 14.9644 5.19416 14.9963C6.42697 15.0713 7.60635 15.229 8.28135 15.4083C8.78666 15.5447 9.81448 15.9614 10.2663 16.2113C10.5276 16.3589 11.3673 16.9859 11.5529 17.1753C11.6967 17.3255 11.8567 17.4565 11.8945 17.4565C11.907 17.4565 11.9226 16.9784 11.9263 16.3962L11.9348 15.3387L13.5854 15.3317C14.8842 15.327 15.2442 15.3343 15.2663 15.3551C15.2979 15.3856 15.3735 15.4864 15.6213 15.8295C15.857 16.16 15.9729 16.3193 16.0451 16.4145C16.0826 16.4668 16.1695 16.5877 16.2429 16.6838C16.311 16.7799 16.4392 16.9575 16.5273 17.0792C16.6151 17.201 16.687 17.3044 16.687 17.3089C16.687 17.33 16.8163 17.4565 16.8385 17.4565C16.8507 17.4565 16.8823 17.4207 16.9042 17.3815C16.9288 17.3393 16.9948 17.2458 17.0485 17.1753C17.1048 17.105 17.2048 16.9676 17.2742 16.8715C17.3438 16.7754 17.4379 16.6418 17.4879 16.5785C17.6257 16.3934 17.7698 16.193 17.8895 16.0292C18.0164 15.8481 18.147 15.6686 18.2813 15.4906C18.3217 15.432 18.372 15.3706 18.3876 15.3551C18.4132 15.334 18.7829 15.3268 20.1198 15.3312L21.8167 15.3385L21.826 17.405C21.8323 19.0327 21.841 19.4686 21.8729 19.4686C21.891 19.4658 22.0167 19.4117 22.146 19.3439C22.3279 19.2488 22.406 19.1902 22.4904 19.0821C22.682 18.8368 23.2251 18.4505 23.5888 18.3003C24.031 18.1171 24.5064 17.9833 25.0001 17.9032C25.5017 17.8235 25.6495 17.8118 26.7885 17.7814C28.8673 17.7275 29.1748 17.7181 29.1907 17.7064C29.2004 17.7 29.1726 17.6386 29.131 17.5681C29.0873 17.5003 29.0123 17.374 28.9588 17.2899C28.761 16.9695 28.761 16.8621 28.9685 16.7049C29.1092 16.5947 29.4726 16.4986 30.0976 16.4053C30.2004 16.3889 30.3298 16.3678 30.382 16.3543C30.436 16.3423 30.5017 16.3332 30.5298 16.3332C30.6092 16.3332 31.2329 16.2185 31.3648 16.181C31.4554 16.1529 31.9448 16.0732 32.5282 15.9889C32.782 15.9514 33.4413 15.8534 33.987 15.7709C34.3323 15.7198 34.6926 15.6657 34.7864 15.6518C34.8804 15.6382 35.016 15.6171 35.0845 15.608C35.1538 15.5963 35.2442 15.5815 35.2882 15.5768C35.332 15.5705 35.552 15.5375 35.7751 15.5028C35.9424 15.4753 36.1106 15.4508 36.2795 15.4294C36.437 15.4184 37.6198 15.2051 37.892 15.1393C38.3254 15.0338 38.4535 14.9918 38.727 14.8545C39.021 14.7045 39.1029 14.6229 39.3945 14.187C39.7182 13.7028 39.7645 13.6212 39.856 13.4171C39.9967 13.0922 39.9879 12.9685 39.8085 12.8321C39.6826 12.7388 39.4129 12.6427 39.2163 12.6216C39.0688 12.6078 39.0492 12.6122 38.9773 12.6708C38.9332 12.706 38.8954 12.7479 38.8954 12.7625C38.8954 12.7836 38.8454 12.8862 38.7048 13.1389C38.6913 13.1646 38.6635 13.2277 38.6413 13.2788C38.6232 13.331 38.5851 13.4035 38.5632 13.4428C38.5229 13.5085 38.5195 13.4968 38.5351 13.3146C38.551 13.1342 38.5914 12.9823 38.6829 12.7524C38.6988 12.7086 38.7207 12.6335 38.7295 12.5867L38.7451 12.5023L38.4192 12.4046C38.0801 12.2991 37.7879 12.2077 37.6198 12.151C37.5623 12.1355 37.422 12.0933 37.306 12.0603C37.1863 12.0275 37.0423 11.9853 36.9826 11.9642C36.8738 11.9281 36.7639 11.8939 36.6529 11.8618C36.4429 11.8003 35.7092 11.6136 35.0842 11.4661C34.6669 11.3702 34.2491 11.2756 33.8307 11.1825C33.6835 11.1545 33.537 11.1241 33.3913 11.0916C33.3413 11.0815 33.2179 11.056 33.1238 11.0377C32.572 10.9233 32.4282 10.8947 32.2301 10.8525C32.1209 10.8289 32.0111 10.8071 31.9007 10.7869C31.841 10.7759 31.6788 10.7475 31.5407 10.7218C31.2988 10.677 30.2857 10.5021 29.7363 10.4077L29.3445 10.34C29.2751 10.3282 29.1507 10.3097 29.0626 10.2978C28.9773 10.2861 28.7988 10.2603 28.6695 10.2392C28.5413 10.2211 28.2654 10.1806 28.0579 10.155C27.8517 10.1276 27.6038 10.0948 27.5098 10.0828C26.6432 9.96566 26.5848 9.9591 25.0317 9.83019C24.0748 9.74863 22.7879 9.67996 22.4745 9.69191C22.4245 9.69191 22.1463 9.70105 21.8604 9.713ZM18.2338 10.8664C19.0626 11.0679 19.8682 11.3417 20.4201 11.6089C20.8595 11.8214 21.4051 12.1611 21.5529 12.3129L21.6151 12.3762L21.4967 12.3413C21.431 12.3202 21.2929 12.2757 21.1892 12.2379C20.6373 12.0457 20.5776 12.03 20.5776 12.0722C20.5776 12.0832 20.7057 12.2379 20.8595 12.4109C21.017 12.5867 21.1413 12.7414 21.1413 12.7554C21.1413 12.7671 21.0829 12.7479 21.0095 12.7104C20.7276 12.5656 20.0657 12.357 20.0282 12.3992C20.0185 12.4109 20.222 12.605 20.4835 12.8321C20.7398 13.0592 20.9535 13.2532 20.9535 13.268C20.9535 13.3027 20.9035 13.298 20.6654 13.2321C20.4201 13.1672 20.3579 13.16 20.3579 13.2047C20.3579 13.235 20.8876 13.7705 21.0976 13.9554C21.1573 14.0068 21.2048 14.0562 21.2048 14.0679C21.2048 14.1239 20.4701 13.766 19.9501 13.4574C19.2064 13.0125 18.4876 12.4156 18.1095 11.9222C17.7979 11.5191 17.6917 11.3023 17.6917 11.0632C17.6917 10.9233 17.7004 10.895 17.7698 10.8453C17.8104 10.8134 17.8613 10.7867 17.8798 10.7867C17.8982 10.7867 18.0554 10.8225 18.2338 10.8664ZM28.1373 11.6996C28.4376 11.7399 28.8488 11.7931 29.0467 11.8196C29.2445 11.8453 29.486 11.8753 29.5801 11.8873C29.6742 11.9011 29.8082 11.9194 29.8779 11.9311C29.9467 11.9431 30.082 11.9642 30.176 11.9806C30.486 12.0321 30.5617 12.0439 31.0695 12.1327C31.6151 12.2288 31.7348 12.2471 31.9007 12.2726C32.0423 12.2937 32.1826 12.334 32.1826 12.3523C32.1826 12.3598 32.0801 12.4046 31.9545 12.4531C31.697 12.5492 31.6432 12.5564 30.5835 12.5867C29.8623 12.6096 29.4763 12.6031 29.1248 12.5609C28.4154 12.4789 28.0495 12.3296 27.7638 12.0064C27.6638 11.8964 27.5979 11.8634 27.3682 11.8196C27.2838 11.8003 27.1548 11.7746 27.0863 11.7582C27.0167 11.7418 26.8982 11.716 26.8226 11.6996C26.5967 11.6557 26.7251 11.63 27.1804 11.63C27.4938 11.63 27.7138 11.6457 28.1373 11.6996ZM31.9104 14.9691C31.8847 14.9737 31.858 14.9737 31.8323 14.9691C31.8104 14.9616 31.826 14.9571 31.8701 14.9571C31.9129 14.9571 31.9288 14.9618 31.9107 14.9689L31.9104 14.9691ZM31.7751 14.9965C31.7751 15.0082 31.7385 15.0246 31.6907 15.0321C31.5932 15.0504 31.211 15.1329 31.0854 15.1629C31.0413 15.1749 30.8998 15.2079 30.7717 15.2356C30.4482 15.3059 29.6645 15.4971 29.4545 15.5585C29.0588 15.6711 28.1301 16.0402 27.9995 16.1391C27.8042 16.2818 27.7442 16.4356 27.7735 16.7304C27.782 16.8549 27.8042 17.0117 27.8235 17.0792C27.8613 17.2268 27.8392 17.2669 27.7638 17.1938C27.6882 17.1214 27.5282 16.8596 27.4817 16.7304C27.456 16.6728 27.4282 16.595 27.4123 16.5575C27.356 16.4246 27.3779 16.2671 27.466 16.1719C27.5845 16.0355 28.0117 15.8185 28.5132 15.6382C28.7513 15.5513 29.4445 15.3734 30.082 15.2335C30.2101 15.2053 30.3517 15.1723 30.3957 15.1632C30.8473 15.0486 31.7751 14.9386 31.7751 14.9965ZM21.8545 15.1538C21.8445 15.1603 21.8167 15.1632 21.7945 15.1557C21.7688 15.1493 21.7788 15.1421 21.8129 15.1421C21.8482 15.1393 21.8667 15.1468 21.8545 15.1538Z" fill="#850000"/>
<path d="M15.2759 19.6794V21.3172H16.8384C18.0115 21.3172 18.4093 21.3102 18.4374 21.2891C18.4849 21.254 18.4949 18.0416 18.4471 18.0416C18.4315 18.0416 18.4096 18.0599 18.3996 18.081C18.3871 18.1021 18.0456 18.5022 17.6378 18.97C16.9921 19.7097 16.8128 19.8899 16.8128 19.7985C16.8128 19.7821 15.7434 18.5305 15.4699 18.2282C15.4336 18.1889 15.4013 18.1476 15.3734 18.1047C15.3478 18.069 15.3171 18.0414 15.3015 18.0414C15.2881 18.0414 15.2759 18.7785 15.2759 19.6794Z" fill="#850000"/>
</svg>
