<svg width="39" height="43" viewBox="0 0 39 43" fill="none" xmlns="http://www.w3.org/2000/svg">
<g clip-path="url(#clip0_90_435)" filter="url(#filter0_d_90_435)">
<path d="M12 35C16.14 35 19.5 32.3866 19.5 29.1666V23.3333H12C7.86 23.3333 4.5 25.9466 4.5 29.1666C4.5 32.3866 7.86 35 12 35Z" fill="#0ACF83"/>
<path d="M4.5 17.5C4.5 14.28 7.86 11.6666 12 11.6666H19.5V23.3333H12C7.86 23.3333 4.5 20.72 4.5 17.5Z" fill="#A259FF"/>
<path d="M4.5 5.83333C4.5 2.61333 7.86 0 12 0H19.5V11.6667H12C7.86 11.6667 4.5 9.05333 4.5 5.83333Z" fill="#F24E1E"/>
<path d="M19.5 0H27C31.14 0 34.5 2.61333 34.5 5.83333C34.5 9.05333 31.14 11.6667 27 11.6667H19.5V0Z" fill="#FF7262"/>
<path d="M34.5 17.5C34.5 20.72 31.14 23.3333 27 23.3333C22.86 23.3333 19.5 20.72 19.5 17.5C19.5 14.28 22.86 11.6666 27 11.6666C31.14 11.6666 34.5 14.28 34.5 17.5Z" fill="#1ABCFE"/>
</g>
<defs>
<filter id="filter0_d_90_435" x="0.5" y="0" width="38" height="43" filterUnits="userSpaceOnUse" color-interpolation-filters="sRGB">
<feFlood flood-opacity="0" result="BackgroundImageFix"/>
<feColorMatrix in="SourceAlpha" type="matrix" values="0 0 0 0 0 0 0 0 0 0 0 0 0 0 0 0 0 0 127 0" result="hardAlpha"/>
<feOffset dy="4"/>
<feGaussianBlur stdDeviation="2"/>
<feComposite in2="hardAlpha" operator="out"/>
<feColorMatrix type="matrix" values="0 0 0 0 0 0 0 0 0 0 0 0 0 0 0 0 0 0 0.25 0"/>
<feBlend mode="normal" in2="BackgroundImageFix" result="effect1_dropShadow_90_435"/>
<feBlend mode="normal" in="SourceGraphic" in2="effect1_dropShadow_90_435" result="shape"/>
</filter>
<clipPath id="clip0_90_435">
<rect width="30" height="35" fill="white" transform="translate(4.5)"/>
</clipPath>
</defs>
</svg>
