<svg width="30" height="31" viewBox="0 0 30 31" fill="none" xmlns="http://www.w3.org/2000/svg">
<path fill-rule="evenodd" clip-rule="evenodd" d="M14.955 0.5C10.9888 0.500511 7.18526 2.12018 4.38076 5.00281C1.57627 7.88544 0.000497168 11.795 0 15.8716C0 22.6594 4.31249 28.4121 10.1831 30.4878C10.9181 30.5822 11.1919 30.11 11.1919 29.7323V27.092C7.06499 28.0363 6.14812 25.0183 6.14812 25.0183C5.50499 23.226 4.49624 22.7538 4.49624 22.7538C3.12 21.8114 4.58624 21.8114 4.58624 21.8114C6.05437 21.9058 6.88124 23.4148 6.88124 23.4148C8.25749 25.7718 10.3669 25.1108 11.1937 24.735C11.2837 23.6981 11.7431 23.039 12.1106 22.6613C8.80686 22.2835 5.32124 20.9634 5.32124 15.0217C5.32124 13.3258 5.87062 12.0037 6.88124 10.8724C6.78749 10.5891 6.23812 8.98754 7.06499 6.91191C7.06499 6.91191 8.34936 6.53417 11.1919 8.51537C12.3844 8.13763 13.6706 8.0432 14.955 8.0432C16.2394 8.0432 17.5237 8.23207 18.7162 8.51537C21.5606 6.5361 22.845 6.91191 22.845 6.91191C23.67 8.98754 23.1187 10.5891 23.0268 10.9668C24.0373 12.0983 24.5945 13.5803 24.5868 15.1162C24.5868 21.0578 21.0993 22.2835 17.7994 22.6613C18.3487 23.1315 18.8081 24.0739 18.8081 25.4885V29.7323C18.8081 30.11 19.0818 30.5803 19.8168 30.4878C22.7906 29.4562 25.3737 27.4901 27.2011 24.8673C29.0284 22.2444 30.0075 19.0976 30 15.8716C29.9081 7.38408 23.2125 0.5 14.955 0.5Z" fill="#3B4045"/>
</svg>
