<svg width="40" height="40" viewBox="0 0 40 40" fill="none" xmlns="http://www.w3.org/2000/svg">
<g clip-path="url(#clip0_96_148)">
<path d="M5.46063 32.2738L10.3841 0.769397C10.4136 0.581119 10.5015 0.406862 10.6353 0.27124C10.7692 0.135619 10.9423 0.0454863 11.1302 0.0135738C11.3181 -0.0183386 11.5113 0.00958177 11.6824 0.0933914C11.8536 0.177201 11.9941 0.312664 12.0841 0.480647L17.1759 9.97752L19.2053 6.11315C19.2825 5.96657 19.3982 5.84384 19.54 5.75823C19.6819 5.67262 19.8444 5.62738 20.01 5.62738C20.1757 5.62738 20.3382 5.67262 20.48 5.75823C20.6218 5.84384 20.7375 5.96657 20.8147 6.11315L34.5553 32.2738H5.46063Z" fill="#FFA000"/>
<path d="M22.4697 20.0015L17.1734 9.97278L5.46063 32.2737L22.4697 20.0015Z" fill="#F57C00"/>
<path d="M34.5553 32.2738L30.7844 8.9388C30.7565 8.77431 30.6839 8.62066 30.5746 8.49466C30.4652 8.36866 30.3233 8.27517 30.1644 8.22443C30.0055 8.17381 29.8358 8.16785 29.6737 8.20721C29.5117 8.24656 29.3636 8.3297 29.2456 8.44755L5.46063 32.2735L18.6216 39.6541C19.028 39.881 19.4858 40.0001 19.9513 40.0001C20.4167 40.0001 20.8745 39.881 21.2809 39.6541L34.5553 32.2738Z" fill="#FFCA28"/>
<path d="M30.7844 8.9387C30.7565 8.77421 30.6839 8.62055 30.5746 8.49455C30.4652 8.36855 30.3233 8.27507 30.1644 8.22432C30.0055 8.17367 29.8358 8.16766 29.6738 8.20695C29.5118 8.24625 29.3636 8.32934 29.2456 8.44713L24.5247 13.1806L20.8125 6.11307C20.7354 5.96649 20.6196 5.84377 20.4778 5.75816C20.336 5.67255 20.1735 5.6273 20.0078 5.6273C19.8422 5.6273 19.6797 5.67255 19.5379 5.75816C19.396 5.84377 19.2803 5.96649 19.2031 6.11307L17.1738 9.97713L12.0819 0.480571C11.9918 0.312356 11.851 0.176752 11.6796 0.0929617C11.5081 0.00917102 11.3147 -0.0185598 11.1266 0.0136961C10.9386 0.0459432 10.7656 0.136464 10.6319 0.272456C10.4982 0.408448 10.4106 0.583029 10.3816 0.771509L5.46064 32.2737H5.4447L5.46033 32.2918L5.59001 32.3556L29.2388 8.67932C29.3567 8.56086 29.505 8.4772 29.6674 8.43753C29.8298 8.39786 29.9999 8.40371 30.1592 8.45445C30.3185 8.50518 30.4607 8.59883 30.5702 8.72511C30.6797 8.85139 30.7523 9.00541 30.78 9.17026L34.5191 32.2962L34.5553 32.2734L30.7844 8.9387ZM5.50376 32.2306L10.3838 0.994321C10.4128 0.805741 10.5003 0.631058 10.6341 0.495C10.7679 0.358942 10.941 0.268402 11.1291 0.236196C11.3172 0.203967 11.5107 0.231745 11.6821 0.315593C11.8536 0.399442 11.9943 0.535111 12.0844 0.703384L17.1756 10.2003L19.2053 6.33588C19.2825 6.1893 19.3982 6.06658 19.54 5.98097C19.6819 5.89536 19.8444 5.85011 20.01 5.85011C20.1757 5.85011 20.3382 5.89536 20.48 5.98097C20.6218 6.06658 20.7375 6.1893 20.8147 6.33588L24.4516 13.2531L5.50314 32.2306H5.50376Z" fill="white" fill-opacity="0.2"/>
<path opacity="0.2" d="M21.2809 39.4313C20.8745 39.6581 20.4167 39.7772 19.9512 39.7772C19.4858 39.7772 19.028 39.6581 18.6216 39.4313L5.49187 32.0719L5.45999 32.2741L18.6209 39.6522C19.0274 39.8791 19.4851 39.9982 19.9506 39.9982C20.4161 39.9982 20.8738 39.8791 21.2803 39.6522L34.5553 32.2741L34.5209 32.0647L21.2803 39.4319L21.2809 39.4313Z" fill="#A52714"/>
</g>
<defs>
<clipPath id="clip0_96_148">
<rect width="40" height="40" fill="white"/>
</clipPath>
</defs>
</svg>
