<svg width="32" height="39" viewBox="0 0 32 39" fill="none" xmlns="http://www.w3.org/2000/svg">
<g filter="url(#filter0_d_90_420)">
<path d="M16.62 30.5L15.869 30.251C15.869 30.251 15.969 26.451 14.594 26.184C13.694 25.136 14.727 -18.557 18.017 26.035C17.3928 26.3517 16.9151 26.8974 16.684 27.558C16.5601 28.5338 16.5387 29.5198 16.62 30.5Z" fill="url(#paint0_linear_90_420)"/>
<path d="M17.026 26.829C19.0256 25.3238 20.5569 23.282 21.442 20.9409C22.3271 18.5998 22.5296 16.0556 22.026 13.604C20.556 7.119 17.075 4.987 16.7 4.173C16.3765 3.66613 16.1003 3.13053 15.875 2.573L16.152 20.642C16.152 20.642 15.578 26.164 17.026 26.829Z" fill="url(#paint1_linear_90_420)"/>
<path d="M15.4871 27.069C15.4871 27.069 9.36611 22.9 9.72011 15.525C9.75313 13.3016 10.2629 11.1113 11.215 9.10182C12.1671 7.09237 13.5394 5.31065 15.2391 3.877C15.4377 3.70825 15.5955 3.49668 15.7007 3.25818C15.8058 3.01969 15.8555 2.76047 15.8461 2.5C16.2271 3.32 16.1651 14.743 16.2051 16.079C16.3601 21.276 15.9161 26.088 15.4871 27.069Z" fill="url(#paint2_linear_90_420)"/>
</g>
<defs>
<filter id="filter0_d_90_420" x="-4" y="0.5" width="40" height="40" filterUnits="userSpaceOnUse" color-interpolation-filters="sRGB">
<feFlood flood-opacity="0" result="BackgroundImageFix"/>
<feColorMatrix in="SourceAlpha" type="matrix" values="0 0 0 0 0 0 0 0 0 0 0 0 0 0 0 0 0 0 127 0" result="hardAlpha"/>
<feOffset dy="4"/>
<feGaussianBlur stdDeviation="2"/>
<feComposite in2="hardAlpha" operator="out"/>
<feColorMatrix type="matrix" values="0 0 0 0 0 0 0 0 0 0 0 0 0 0 0 0 0 0 0.25 0"/>
<feBlend mode="normal" in2="BackgroundImageFix" result="effect1_dropShadow_90_420"/>
<feBlend mode="normal" in="SourceGraphic" in2="effect1_dropShadow_90_420" result="shape"/>
</filter>
<linearGradient id="paint0_linear_90_420" x1="11.5716" y1="16.7523" x2="20.2033" y2="19.6815" gradientUnits="userSpaceOnUse">
<stop offset="0.231" stop-color="#999875"/>
<stop offset="0.563" stop-color="#9B9977"/>
<stop offset="0.683" stop-color="#A09F7E"/>
<stop offset="0.768" stop-color="#A9A889"/>
<stop offset="0.837" stop-color="#B7B69A"/>
<stop offset="0.896" stop-color="#C9C7B0"/>
<stop offset="0.948" stop-color="#DEDDCB"/>
<stop offset="0.994" stop-color="#F8F6EB"/>
<stop offset="1" stop-color="#FBF9EF"/>
</linearGradient>
<linearGradient id="paint1_linear_90_420" x1="14.7369" y1="2.44388" x2="18.553" y2="26.2728" gradientUnits="userSpaceOnUse">
<stop stop-color="#48A547"/>
<stop offset="1" stop-color="#3F9143"/>
</linearGradient>
<linearGradient id="paint2_linear_90_420" x1="9.19358" y1="16.255" x2="19.4342" y2="12.8254" gradientUnits="userSpaceOnUse">
<stop stop-color="#41A247"/>
<stop offset="0.352" stop-color="#4BA74B"/>
<stop offset="0.956" stop-color="#67B554"/>
<stop offset="1" stop-color="#69B655"/>
</linearGradient>
</defs>
</svg>
