<svg width="88" height="85" viewBox="0 0 88 85" fill="none" xmlns="http://www.w3.org/2000/svg">
<g filter="url(#filter0_d_153_34)">
<g clipPath="url(#clip0_153_34)">
<path d="M18.1687 29.375H80.4625V75.4187H18.1687V29.375Z" fill="white"/>
<path d="M4.9375 39.9437V79.0062H83.0625V0.881248H4.9375V39.9437ZM67.8938 36.8187C69.7649 37.253 71.4656 38.2316 72.7813 39.6312C73.5055 40.3853 74.1352 41.2248 74.6563 42.1312C74.6563 42.2312 71.2813 44.5125 69.225 45.7875C69.15 45.8375 68.85 45.5125 68.5188 45.0187C68.1434 44.371 67.61 43.829 66.9685 43.4432C66.3269 43.0574 65.5981 42.8404 64.85 42.8125C62.4813 42.65 60.9563 43.8937 60.9688 45.9375C60.9492 46.4463 61.0657 46.9512 61.3063 47.4C61.825 48.4812 62.7938 49.125 65.8313 50.4375C71.425 52.8437 73.8187 54.4312 75.3062 56.6875C76.9687 59.1875 77.3375 63.225 76.2125 66.2125C74.9625 69.4625 71.9 71.6687 67.5687 72.4C65.5905 72.6266 63.5918 72.6056 61.6188 72.3375C58.5948 71.839 55.8093 70.3872 53.6688 68.1937C52.95 67.4 51.55 65.3312 51.6375 65.1812C51.8657 65.0119 52.1059 64.8594 52.3563 64.725L55.25 63.125L57.4937 61.825L57.9625 62.5187C58.7536 63.6504 59.7603 64.6146 60.925 65.3562C63.425 66.6687 66.8375 66.4875 68.525 64.9687C69.0916 64.4122 69.445 63.6746 69.5238 62.8843C69.6026 62.0941 69.4018 61.3012 68.9563 60.6437C68.3313 59.775 67.0812 59.0437 63.5875 57.5187C59.5562 55.7812 57.8187 54.7062 56.2312 52.9937C55.2402 51.8637 54.5085 50.5304 54.0875 49.0875C53.7735 47.439 53.727 45.7507 53.95 44.0875C54.7812 40.1937 57.7 37.475 61.9625 36.6687C63.9365 36.4245 65.9361 36.4793 67.8938 36.8312V36.8187ZM49.5562 40.0937V43.2937H39.4125V72.1875H32.2188V43.2875H22.05V40.1625C22.0183 39.0848 22.0434 38.0063 22.125 36.9312C22.175 36.875 28.375 36.875 35.875 36.875H49.5188L49.5562 40.0937Z" fill="#007ACC"/>
</g>
<rect x="4.5" y="0.5" width="79" height="79" stroke="black" shape-rendering="crispEdges"/>
</g>
<defs>
<filter id="filter0_d_153_34" x="0" y="0" width="88" height="88" filterUnits="userSpaceOnUse" color-interpolation-filters="sRGB">
<feFlood flood-opacity="0" result="BackgroundImageFix"/>
<feColorMatrix in="SourceAlpha" type="matrix" values="0 0 0 0 0 0 0 0 0 0 0 0 0 0 0 0 0 0 127 0" result="hardAlpha"/>
<feOffset dy="4"/>
<feGaussianBlur stdDeviation="2"/>
<feComposite in2="hardAlpha" operator="out"/>
<feColorMatrix type="matrix" values="0 0 0 0 0 0 0 0 0 0 0 0 0 0 0 0 0 0 0.25 0"/>
<feBlend mode="normal" in2="BackgroundImageFix" result="effect1_dropShadow_153_34"/>
<feBlend mode="normal" in="SourceGraphic" in2="effect1_dropShadow_153_34" result="shape"/>
</filter>
<clipPath id="clip0_153_34">
<rect x="4" width="80" height="80" fill="white"/>
</clipPath>
</defs>
</svg>
