<svg width="88" height="85" viewBox="0 0 88 85" fill="none" xmlns="http://www.w3.org/2000/svg">
<g id="devicon:javascript" clipPath="url(#clip0_76_19)" filter="url(#filter0_d_76_19)">
<path id="Vector" d="M4.87988 0.880005H83.1199V79.1206H4.87988V0.880005Z" fill="#F0DB4F"/>
<path id="Vector_2" d="M76.717 60.46C76.1439 56.8906 73.8164 53.8925 66.922 51.0969C64.527 49.9962 61.857 49.2081 61.0613 47.3931C60.7788 46.3369 60.7413 45.7419 60.9201 45.1025C61.4332 43.0275 63.9101 42.3806 65.8732 42.9756C67.1376 43.3994 68.3345 44.3737 69.0564 45.9281C72.4326 43.7419 72.4257 43.7562 74.7832 42.2537C73.9201 40.9156 73.4595 40.2981 72.8945 39.7256C70.8639 37.4575 68.097 36.2894 63.672 36.3787L61.367 36.6769C59.1582 37.235 57.0532 38.3944 55.8189 39.9487C52.1151 44.1512 53.1714 51.5062 57.6782 54.5331C62.1182 57.8656 68.6407 58.6237 69.4739 61.74C70.2845 65.555 66.6701 66.79 63.0776 66.3512C60.4301 65.8006 58.9576 64.455 57.3657 62.0081C54.4357 63.7037 54.4357 63.7037 51.4232 65.4362C52.1376 66.9981 52.8882 67.705 54.0857 69.0581C59.7532 74.8069 73.9357 74.5244 76.4795 65.8231C76.5826 65.5244 77.2676 63.5319 76.717 60.46ZM47.4138 36.8394H40.0957L40.0657 55.7594C40.0657 59.7831 40.2738 63.4719 39.6195 64.6025C38.5488 66.8262 35.7745 66.5506 34.5101 66.1194C33.2232 65.4869 32.5688 64.5875 31.8107 63.3162C31.6026 62.9512 31.4463 62.6687 31.3938 62.6469L25.4438 66.2906C26.4332 68.3212 27.8907 70.0837 29.7576 71.2287C32.5463 72.9025 36.2945 73.4156 40.2145 72.5156C42.7657 71.7725 44.967 70.2331 46.1195 67.89C47.7857 64.8181 47.4282 61.1 47.4132 56.9875C47.4507 50.2781 47.4138 43.57 47.4138 36.8394Z" fill="#323330"/>
</g>
<defs>
<filter id="filter0_d_76_19" x="0" y="0" width="88" height="88" filterUnits="userSpaceOnUse" color-interpolation-filters="sRGB">
<feFlood flood-opacity="0" result="BackgroundImageFix"/>
<feColorMatrix in="SourceAlpha" type="matrix" values="0 0 0 0 0 0 0 0 0 0 0 0 0 0 0 0 0 0 127 0" result="hardAlpha"/>
<feOffset dy="4"/>
<feGaussianBlur stdDeviation="2"/>
<feComposite in2="hardAlpha" operator="out"/>
<feColorMatrix type="matrix" values="0 0 0 0 0 0 0 0 0 0 0 0 0 0 0 0 0 0 0.25 0"/>
<feBlend mode="normal" in2="BackgroundImageFix" result="effect1_dropShadow_76_19"/>
<feBlend mode="normal" in="SourceGraphic" in2="effect1_dropShadow_76_19" result="shape"/>
</filter>
<clipPath id="clip0_76_19">
<rect width="80" height="80" fill="white" transform="translate(4)"/>
</clipPath>
</defs>
</svg>
