<svg width="31" height="30" viewBox="0 0 31 30" fill="none" xmlns="http://www.w3.org/2000/svg">
<g id="ep:arrow-left-bold">
<path id="Vector" d="M10.4244 26.9325C10.0729 26.5809 9.8754 26.104 9.8754 25.6068C9.8754 25.1097 10.0729 24.6328 10.4244 24.2812L19.7056 15L10.4244 5.71872C10.0828 5.36509 9.89384 4.89146 9.89811 4.39984C9.90239 3.90822 10.0996 3.43795 10.4472 3.09031C10.7949 2.74267 11.2651 2.54548 11.7568 2.54121C12.2484 2.53693 12.722 2.72592 13.0756 3.06747L23.6825 13.6743C24.034 14.026 24.2315 14.5028 24.2315 15C24.2315 15.4972 24.034 15.974 23.6825 16.3256L13.0756 26.9325C12.724 27.284 12.2472 27.4814 11.75 27.4814C11.2528 27.4814 10.776 27.284 10.4244 26.9325Z" fill="#ffffff"/>
</g>
</svg>
