<svg width="31" height="30" viewBox="0 0 31 30" fill="none" xmlns="http://www.w3.org/2000/svg">
<g id="ep:arrow-left-bold">
<path id="Vector" d="M20.5757 3.06753C20.9272 3.41914 21.1246 3.89597 21.1246 4.39315C21.1246 4.89034 20.9272 5.36716 20.5757 5.71878L11.2944 15L20.5757 24.2813C20.9172 24.6349 21.1062 25.1085 21.1019 25.6002C21.0976 26.0918 20.9005 26.562 20.5528 26.9097C20.2052 27.2573 19.7349 27.4545 19.2433 27.4588C18.7517 27.4631 18.278 27.2741 17.9244 26.9325L7.31753 16.3257C6.96602 15.974 6.76855 15.4972 6.76855 15C6.76855 14.5028 6.96602 14.026 7.31753 13.6744L17.9244 3.06753C18.276 2.71602 18.7528 2.51855 19.25 2.51855C19.7472 2.51855 20.224 2.71602 20.5757 3.06753Z" fill="#ffffff"/>
</g>
</svg>
