<svg width="74" height="85" viewBox="0 0 74 85" fill="none" xmlns="http://www.w3.org/2000/svg">
<g id="logos:figma" clip-path="url(#clip0_84_173)" filter="url(#filter0_d_84_173)">
<path id="Vector" d="M20.75 80C29.72 80 37 74.0267 37 66.6667V53.3333H20.75C11.78 53.3333 4.5 59.3067 4.5 66.6667C4.5 74.0267 11.78 80 20.75 80Z" fill="#0ACF83"/>
<path id="Vector_2" d="M4.5 40C4.5 32.64 11.78 26.6667 20.75 26.6667H37V53.3333H20.75C11.78 53.3333 4.5 47.36 4.5 40Z" fill="#A259FF"/>
<path id="Vector_3" d="M4.5 13.3333C4.5 5.97333 11.78 0 20.75 0H37V26.6667H20.75C11.78 26.6667 4.5 20.6933 4.5 13.3333Z" fill="#F24E1E"/>
<path id="Vector_4" d="M37 0H53.25C62.22 0 69.5 5.97333 69.5 13.3333C69.5 20.6933 62.22 26.6667 53.25 26.6667H37V0Z" fill="#FF7262"/>
<path id="Vector_5" d="M69.5 40C69.5 47.36 62.22 53.3333 53.25 53.3333C44.28 53.3333 37 47.36 37 40C37 32.64 44.28 26.6667 53.25 26.6667C62.22 26.6667 69.5 32.64 69.5 40Z" fill="#1ABCFE"/>
</g>
<defs>
<filter id="filter0_d_84_173" x="0.5" y="0" width="73" height="88" filterUnits="userSpaceOnUse" color-interpolation-filters="sRGB">
<feFlood flood-opacity="0" result="BackgroundImageFix"/>
<feColorMatrix in="SourceAlpha" type="matrix" values="0 0 0 0 0 0 0 0 0 0 0 0 0 0 0 0 0 0 127 0" result="hardAlpha"/>
<feOffset dy="4"/>
<feGaussianBlur stdDeviation="2"/>
<feComposite in2="hardAlpha" operator="out"/>
<feColorMatrix type="matrix" values="0 0 0 0 0 0 0 0 0 0 0 0 0 0 0 0 0 0 0.25 0"/>
<feBlend mode="normal" in2="BackgroundImageFix" result="effect1_dropShadow_84_173"/>
<feBlend mode="normal" in="SourceGraphic" in2="effect1_dropShadow_84_173" result="shape"/>
</filter>
<clipPath id="clip0_84_173">
<rect width="65" height="80" fill="white" transform="translate(4.5)"/>
</clipPath>
</defs>
</svg>
