<svg width="88" height="85" viewBox="0 0 88 85" fill="none" xmlns="http://www.w3.org/2000/svg">
<g id="logos:aws-s3" clip-path="url(#clip0_84_179)" filter="url(#filter0_d_84_179)">
<path id="Vector" d="M4 0H84V80H4V0Z" fill="url(#paint0_linear_84_179)"/>
<path id="Vector_2" d="M64.8359 42.8925L65.22 40.1888C68.7606 42.3097 68.8069 43.1856 68.8059 43.2097C68.7997 43.2147 68.1959 43.7188 64.8359 42.8925ZM62.8928 42.3525C56.7728 40.5006 48.25 36.5906 44.8009 34.9606C44.8009 34.9466 44.805 34.9338 44.805 34.9197C44.805 33.5947 43.7269 32.5166 42.4009 32.5166C41.0769 32.5166 39.9988 33.5947 39.9988 34.9197C39.9988 36.2447 41.0769 37.3228 42.4009 37.3228C42.9828 37.3228 43.5109 37.1056 43.9278 36.7603C47.9859 38.6816 56.4428 42.5347 62.6078 44.3547L60.17 61.5606C60.1628 61.6075 60.16 61.6544 60.16 61.7016C60.16 63.2166 53.4528 65.9997 42.4938 65.9997C31.4188 65.9997 24.6406 63.2166 24.6406 61.7016C24.6407 61.6561 24.6378 61.6107 24.6319 61.5656L19.5381 24.3588C23.9469 27.3938 33.43 28.9994 42.5 28.9994C51.5559 28.9994 61.0228 27.3994 65.4406 24.3738L62.8928 42.3525ZM19 20.4775C19.0719 19.1619 26.6337 13.9994 42.5 13.9994C58.3638 13.9994 65.9269 19.1606 66 20.4775V20.9266C65.13 23.8775 55.33 26.9997 42.5 26.9997C29.6478 26.9997 19.8428 23.8675 19 20.9125V20.4775ZM68 20.4994C68 17.0347 58.0656 11.9994 42.5 11.9994C26.9337 11.9994 17 17.0347 17 20.4994L17.0938 21.2538L22.6419 61.7775C22.775 66.3097 34.8606 67.9994 42.4938 67.9994C51.9656 67.9994 62.0287 65.8216 62.1587 61.7806L64.555 44.8838C65.8878 45.2025 66.985 45.3656 67.8659 45.3656C69.0487 45.3656 69.8488 45.0766 70.3337 44.4988C70.7319 44.0247 70.8837 43.4506 70.77 42.8394C70.5106 41.4556 68.8678 39.9638 65.5219 38.0547L67.8978 21.2925L68 20.4994Z" fill="white"/>
</g>
<defs>
<filter id="filter0_d_84_179" x="0" y="0" width="88" height="88" filterUnits="userSpaceOnUse" color-interpolation-filters="sRGB">
<feFlood flood-opacity="0" result="BackgroundImageFix"/>
<feColorMatrix in="SourceAlpha" type="matrix" values="0 0 0 0 0 0 0 0 0 0 0 0 0 0 0 0 0 0 127 0" result="hardAlpha"/>
<feOffset dy="4"/>
<feGaussianBlur stdDeviation="2"/>
<feComposite in2="hardAlpha" operator="out"/>
<feColorMatrix type="matrix" values="0 0 0 0 0 0 0 0 0 0 0 0 0 0 0 0 0 0 0.25 0"/>
<feBlend mode="normal" in2="BackgroundImageFix" result="effect1_dropShadow_84_179"/>
<feBlend mode="normal" in="SourceGraphic" in2="effect1_dropShadow_84_179" result="shape"/>
</filter>
<linearGradient id="paint0_linear_84_179" x1="4" y1="8000" x2="8004" y2="0" gradientUnits="userSpaceOnUse">
<stop stop-color="#1B660F"/>
<stop offset="1" stop-color="#6CAE3E"/>
</linearGradient>
<clipPath id="clip0_84_179">
<rect width="80" height="80" fill="white" transform="translate(4)"/>
</clipPath>
</defs>
</svg>
