<svg width="90" height="85" viewBox="0 0 90 85" fill="none" xmlns="http://www.w3.org/2000/svg">
<g id="logos:react" clipPath="url(#clip0_76_75)" filter="url(#filter0_d_76_75)">
<path id="Vector" d="M72.3869 25.9031C71.4823 25.5751 70.5701 25.2713 69.651 24.9919C69.8054 24.3252 69.9475 23.6666 70.0737 23.0196C72.1449 12.3947 70.7909 3.83503 66.166 1.01678C61.7317 -1.68497 54.4798 1.13222 47.1559 7.86801C46.4341 8.53304 45.7283 9.21723 45.0392 9.91994C44.5779 9.45266 44.1084 8.99445 43.631 8.54555C35.9551 1.34345 28.2613 -1.69199 23.6414 1.13432C19.2111 3.8445 17.8993 11.8912 19.764 21.9606C19.9495 22.9579 20.159 23.95 20.3922 24.9361C19.3031 25.2631 18.2522 25.6112 17.2465 25.9817C8.24713 29.2975 2.5 34.4936 2.5 39.8834C2.5 45.4501 8.66981 51.0336 18.043 54.4192C18.803 54.6926 19.5692 54.9459 20.341 55.1789C20.0904 56.2409 19.8678 57.3101 19.6737 58.3852C17.896 68.2799 19.2842 76.1364 23.7025 78.8294C28.266 81.6105 35.9253 78.7522 43.383 71.8627C43.9878 71.3026 44.5792 70.7267 45.1567 70.1354C45.903 70.8963 46.6692 71.635 47.4544 72.3508C54.6787 78.9199 61.8134 81.5726 66.2274 78.8722C70.7865 76.0831 72.2684 67.6431 70.3446 57.3747C70.1931 56.5702 70.0231 55.7697 69.8349 54.974C70.3728 54.8055 70.9008 54.6322 71.4154 54.4519C81.1599 51.0403 87.5 45.5245 87.5 39.8834C87.5 34.474 81.5673 29.2427 72.3869 25.9031ZM70.2736 50.8098C69.8087 50.9722 69.3319 51.1291 68.8458 51.2817C67.77 47.6827 66.3184 43.8561 64.5417 39.902C66.237 36.0424 67.6329 32.2645 68.6785 28.6891C69.5481 28.955 70.3918 29.2354 71.2052 29.5312C79.0711 32.3929 83.8689 36.6234 83.8689 39.8834C83.8689 43.3557 78.6872 47.8634 70.2736 50.8098ZM66.7826 58.1199C67.6332 62.6603 67.7544 66.7655 67.191 69.975C66.685 72.8589 65.667 74.7813 64.4079 75.5515C61.7294 77.1901 56.0009 75.0603 49.8228 69.442C49.0924 68.7766 48.3797 68.0897 47.6855 67.3824C50.0807 64.6143 52.4744 61.3964 54.8105 57.8224C58.9197 57.4371 62.8019 56.807 66.3224 55.947C66.492 56.6673 66.6454 57.3919 66.7826 58.1199ZM31.4784 75.2684C28.8613 76.2449 26.7768 76.2729 25.5167 75.5052C22.8356 73.8712 21.721 67.5627 23.2413 59.101C23.4221 58.1011 23.629 57.1067 23.8619 56.1189C27.3436 56.9329 31.1975 57.5182 35.3163 57.8712C37.6684 61.3684 40.1311 64.5827 42.613 67.3975C42.0856 67.9368 41.5456 68.4624 40.9937 68.9736C37.6956 72.0199 34.3909 74.1813 31.4784 75.2684ZM19.2178 50.7884C15.073 49.2912 11.6501 47.3456 9.30398 45.2224C7.19559 43.3147 6.13143 41.4203 6.13143 39.8834C6.13143 36.6126 10.7457 32.4406 18.4418 29.6052C19.3758 29.2613 20.3533 28.9368 21.3677 28.6322C22.4315 32.2884 23.8267 36.1112 25.5104 39.9768C23.8048 43.8996 22.3897 47.7834 21.3155 51.4827C20.611 51.2695 19.9115 51.0379 19.2178 50.7884ZM23.3277 21.2234C21.7303 12.5964 22.7911 6.08871 25.461 4.45538C28.3045 2.71573 34.5925 5.19608 41.2202 11.415C41.6523 11.8215 42.0775 12.2362 42.4955 12.6589C40.0258 15.4613 37.5857 18.6519 35.2546 22.1284C31.2569 22.5199 27.4302 23.1487 23.912 23.9912C23.6953 23.074 23.5004 22.1509 23.3277 21.2234ZM59.9929 30.7912C59.1619 29.2743 58.3001 27.7765 57.408 26.2989C60.12 26.6613 62.7185 27.1424 65.1586 27.7305C64.4262 30.2119 63.5131 32.8059 62.4383 35.4655C61.6527 33.8904 60.8374 32.3319 59.9929 30.7912ZM45.0408 15.4013C46.7156 17.3189 48.393 19.4596 50.0429 21.7824C46.696 21.6154 43.3436 21.6147 39.9966 21.7803C41.6481 19.4789 43.3398 17.341 45.0408 15.4013ZM29.9929 30.8175C29.1589 32.3458 28.3588 33.8946 27.5933 35.4624C26.5361 32.8122 25.6313 30.2063 24.8925 27.6898C27.3177 27.1164 29.9039 26.6477 32.5986 26.2919C31.6966 27.7785 30.8278 29.2877 29.9929 30.8175ZM32.676 53.748C29.8919 53.4196 27.2669 52.975 24.8424 52.4171C25.5928 49.8557 26.5175 47.1943 27.5976 44.4873C28.3662 46.0563 29.1696 47.606 30.0071 49.135C30.8684 50.707 31.7603 52.2466 32.676 53.748ZM45.1411 64.6357C43.4199 62.6736 41.7033 60.5027 40.0268 58.168C41.6545 58.2354 43.3136 58.2698 45 58.2698C46.7325 58.2698 48.4452 58.2287 50.1309 58.1494C48.4757 60.5263 46.8046 62.7003 45.1411 64.6357ZM62.4725 44.3491C63.6087 47.0859 64.5663 49.7333 65.3266 52.2508C62.8623 52.8452 60.2014 53.3238 57.3977 53.6792C58.2961 52.1742 59.1661 50.6504 60.0071 49.1087C60.8622 47.5417 61.6842 45.9547 62.4725 44.3491ZM56.8618 47.1915C55.5743 49.5552 54.2143 51.8739 52.7841 54.1441C50.1935 54.338 47.5971 54.4344 45 54.4329C42.3547 54.4329 39.7818 54.3459 37.3042 54.1761C35.8367 51.9111 34.4508 49.5883 33.1495 47.2126C31.8543 44.8494 30.6448 42.4352 29.523 39.975C30.642 37.5143 31.8481 35.0989 33.1388 32.734L33.1385 32.7343C34.4288 30.3688 35.8036 28.0559 37.26 25.8006C39.7878 25.5985 42.3799 25.4933 44.9997 25.4933C47.6313 25.4933 50.2272 25.5996 52.7543 25.8031C54.196 28.055 55.562 30.3599 56.8499 32.7136C58.1449 35.0733 59.367 37.4769 60.5142 39.9206C59.3788 42.3893 58.1606 44.8145 56.8618 47.1915ZM64.3524 4.34099C67.1986 6.07573 68.3056 13.0712 66.5173 22.2448C66.4031 22.8301 66.2749 23.4263 66.1354 24.0308C62.6086 23.1705 58.7793 22.5308 54.77 22.1333C52.4345 18.6185 50.0143 15.4231 47.5849 12.6568C48.2216 12.0082 48.8734 11.3764 49.5399 10.762C55.8153 4.99117 61.6803 2.71257 64.3524 4.34099ZM45 31.8624C49.1919 31.8624 52.5902 35.4536 52.5902 39.8834C52.5902 44.3133 49.1919 47.9045 45 47.9045C40.8081 47.9045 37.4098 44.3133 37.4098 39.8834C37.4098 35.4536 40.8081 31.8624 45 31.8624Z" fill="#00D8FF"/>
</g>
<defs>
<filter id="filter0_d_76_75" x="-1.5" y="0" width="93" height="88" filterUnits="userSpaceOnUse" color-interpolation-filters="sRGB">
<feFlood flood-opacity="0" result="BackgroundImageFix"/>
<feColorMatrix in="SourceAlpha" type="matrix" values="0 0 0 0 0 0 0 0 0 0 0 0 0 0 0 0 0 0 127 0" result="hardAlpha"/>
<feOffset dy="4"/>
<feGaussianBlur stdDeviation="2"/>
<feComposite in2="hardAlpha" operator="out"/>
<feColorMatrix type="matrix" values="0 0 0 0 0 0 0 0 0 0 0 0 0 0 0 0 0 0 0.25 0"/>
<feBlend mode="normal" in2="BackgroundImageFix" result="effect1_dropShadow_76_75"/>
<feBlend mode="normal" in="SourceGraphic" in2="effect1_dropShadow_76_75" result="shape"/>
</filter>
<clipPath id="clip0_76_75">
<rect width="85" height="80" fill="white" transform="translate(2.5)"/>
</clipPath>
</defs>
</svg>
