<svg width="50" height="50" viewBox="0 0 50 50" fill="none" xmlns="http://www.w3.org/2000/svg">
<path d="M9.24999 9.25C9.53985 8.95973 9.88408 8.72946 10.263 8.57234C10.6419 8.41523 11.0481 8.33436 11.4583 8.33436C11.8685 8.33436 12.2747 8.41523 12.6536 8.57234C13.0326 8.72946 13.3768 8.95973 13.6667 9.25L25 20.5792L36.3333 9.25C36.6233 8.96 36.9676 8.72995 37.3465 8.57301C37.7254 8.41606 38.1315 8.33528 38.5417 8.33528C38.9518 8.33528 39.3579 8.41606 39.7368 8.57301C40.1157 8.72995 40.46 8.96 40.75 9.25C41.04 9.54 41.27 9.88429 41.427 10.2632C41.5839 10.6421 41.6647 11.0482 41.6647 11.4583C41.6647 11.8685 41.5839 12.2746 41.427 12.6535C41.27 13.0324 41.04 13.3767 40.75 13.6667L29.4208 25L40.75 36.3333C41.3357 36.919 41.6647 37.7134 41.6647 38.5417C41.6647 39.37 41.3357 40.1643 40.75 40.75C40.1643 41.3357 39.3699 41.6647 38.5417 41.6647C37.7134 41.6647 36.919 41.3357 36.3333 40.75L25 29.4208L13.6667 40.75C13.081 41.3357 12.2866 41.6647 11.4583 41.6647C10.63 41.6647 9.83568 41.3357 9.24999 40.75C8.66431 40.1643 8.33527 39.37 8.33527 38.5417C8.33527 37.7134 8.66431 36.919 9.24999 36.3333L20.5792 25L9.24999 13.6667C8.95973 13.3768 8.72945 13.0326 8.57234 12.6537C8.41522 12.2747 8.33435 11.8685 8.33435 11.4583C8.33435 11.0481 8.41522 10.6419 8.57234 10.263C8.72945 9.88409 8.95973 9.53985 9.24999 9.25Z" fill="#f9f7f7"/>
</svg>
