<svg width="88" height="85" viewBox="0 0 88 85" fill="none" xmlns="http://www.w3.org/2000/svg">
<g id="pajamas:github" clip-path="url(#clip0_84_182)" filter="url(#filter0_d_84_182)">
<path id="Vector" fill-rule="evenodd" clip-rule="evenodd" d="M43.88 0C33.3036 0.00132578 23.1607 4.20338 15.682 11.682C8.20338 19.1607 4.00133 29.3036 4 39.88C4 57.49 15.5 72.415 31.155 77.8C33.115 78.045 33.845 76.82 33.845 75.84V68.99C22.84 71.44 20.395 63.61 20.395 63.61C18.68 58.96 15.99 57.735 15.99 57.735C12.32 55.29 16.23 55.29 16.23 55.29C20.145 55.535 22.35 59.45 22.35 59.45C26.02 65.565 31.645 63.85 33.85 62.875C34.09 60.185 35.315 58.475 36.295 57.495C27.485 56.515 18.19 53.09 18.19 37.675C18.19 33.275 19.655 29.845 22.35 26.91C22.1 26.175 20.635 22.02 22.84 16.635C22.84 16.635 26.265 15.655 33.845 20.795C37.025 19.815 40.455 19.57 43.88 19.57C47.305 19.57 50.73 20.06 53.91 20.795C61.495 15.66 64.92 16.635 64.92 16.635C67.12 22.02 65.65 26.175 65.405 27.155C68.0995 30.0904 69.5853 33.9355 69.565 37.92C69.565 53.335 60.265 56.515 51.465 57.495C52.93 58.715 54.155 61.16 54.155 64.83V75.84C54.155 76.82 54.885 78.04 56.845 77.8C64.7751 75.1238 71.6634 70.0228 76.5363 63.2182C81.4092 56.4135 84.0201 48.2494 84 39.88C83.755 17.86 65.9 0 43.88 0Z" fill="#3B4045"/>
</g>
<defs>
<filter id="filter0_d_84_182" x="0" y="0" width="88" height="88" filterUnits="userSpaceOnUse" color-interpolation-filters="sRGB">
<feFlood flood-opacity="0" result="BackgroundImageFix"/>
<feColorMatrix in="SourceAlpha" type="matrix" values="0 0 0 0 0 0 0 0 0 0 0 0 0 0 0 0 0 0 127 0" result="hardAlpha"/>
<feOffset dy="4"/>
<feGaussianBlur stdDeviation="2"/>
<feComposite in2="hardAlpha" operator="out"/>
<feColorMatrix type="matrix" values="0 0 0 0 0 0 0 0 0 0 0 0 0 0 0 0 0 0 0.25 0"/>
<feBlend mode="normal" in2="BackgroundImageFix" result="effect1_dropShadow_84_182"/>
<feBlend mode="normal" in="SourceGraphic" in2="effect1_dropShadow_84_182" result="shape"/>
</filter>
<clipPath id="clip0_84_182">
<rect width="80" height="80" fill="white" transform="translate(4)"/>
</clipPath>
</defs>
</svg>
