<svg width="88" height="85" viewBox="0 0 88 85" fill="none" xmlns="http://www.w3.org/2000/svg">
<g id="skill-icons:postman" clip-path="url(#clip0_84_184)" filter="url(#filter0_d_84_184)">
<g id="Group">
<path id="Vector" d="M65.25 0H22.75C12.3947 0 4 8.39466 4 18.75V61.25C4 71.6053 12.3947 80 22.75 80H65.25C75.6053 80 84 71.6053 84 61.25V18.75C84 8.39466 75.6053 0 65.25 0Z" fill="#FF6C37"/>
<path id="Vector_2" d="M56.8316 27.6913L41.0378 43.4853L36.5837 39.0316C52.1159 23.4997 53.6506 24.8472 56.8316 27.6913Z" fill="#EEEEEE"/>
<path id="Vector_3" d="M41.0378 43.8594C40.9253 43.8594 40.8506 43.8222 40.7756 43.7472L36.2844 39.2934C36.2489 39.2597 36.2207 39.219 36.2014 39.174C36.1821 39.129 36.1721 39.0805 36.1721 39.0316C36.1721 38.9826 36.1821 38.9341 36.2014 38.8891C36.2207 38.8441 36.2489 38.8035 36.2844 38.7697C52.0784 22.9753 53.725 24.4725 57.0563 27.4666C57.1313 27.5416 57.1684 27.6166 57.1684 27.7287C57.1684 27.8412 57.1313 27.9159 57.0563 27.9903L41.2622 43.7472C41.225 43.8222 41.1125 43.8594 41.0378 43.8594ZM37.1078 39.0316L41.0378 42.9612L56.2703 27.7287C53.5009 25.2584 51.6294 24.51 37.1078 39.0316Z" fill="#FF6C37"/>
<path id="Vector_4" d="M45.5663 48.0141L41.2622 43.71L57.0563 27.9163C61.2856 32.1825 54.9603 39.1066 45.5663 48.0141Z" fill="#EEEEEE"/>
<path id="Vector_5" d="M45.5662 48.3884C45.4537 48.3884 45.3794 48.3509 45.3044 48.2759L41.0003 43.9719C40.9253 43.8972 40.9253 43.8222 40.9253 43.71C40.9253 43.5975 40.9628 43.5228 41.0378 43.4478L56.8315 27.6541C56.8653 27.6186 56.906 27.5903 56.951 27.571C56.9961 27.5517 57.0446 27.5418 57.0936 27.5418C57.1426 27.5418 57.1911 27.5517 57.2361 27.571C57.2812 27.5903 57.3218 27.6186 57.3556 27.6541C57.8335 28.0962 58.211 28.6357 58.4628 29.2361C58.7146 29.8365 58.8348 30.4839 58.8153 31.1347C58.7406 35.2888 54.0247 40.5659 45.8656 48.2759C45.7534 48.3509 45.6409 48.3884 45.5662 48.3884ZM41.7862 43.71C44.1812 46.1425 45.1922 47.1159 45.5662 47.49C51.854 41.5019 57.9544 35.3638 57.9919 31.1347C58.0294 30.1616 57.6553 29.1884 57.0187 28.4397L41.7862 43.71Z" fill="#FF6C37"/>
<path id="Vector_6" d="M36.6587 39.1438L39.84 42.325C39.9147 42.4 39.9147 42.4747 39.84 42.5497C39.8025 42.5872 39.8025 42.5872 39.7653 42.5872L33.1778 44.0094C32.8412 44.0469 32.5418 43.8222 32.4668 43.4853C32.4293 43.2981 32.5043 43.1113 32.6168 42.9988L36.434 39.1813C36.509 39.1063 36.6212 39.0688 36.6587 39.1438Z" fill="#EEEEEE"/>
<path id="Vector_7" d="M33.0657 44.3837C32.5044 44.3837 32.0925 43.9344 32.0925 43.3728C32.0925 43.1112 32.205 42.8491 32.3922 42.6619L36.2094 38.8444C36.4341 38.6572 36.7338 38.6572 36.9582 38.8444L40.1394 42.0256C40.3638 42.2128 40.3638 42.5497 40.1394 42.7741C40.0644 42.8491 39.9897 42.8866 39.8772 42.9241L33.2903 44.3462C33.2153 44.3462 33.1403 44.3837 33.0657 44.3837ZM36.5466 39.5553L32.8788 43.2231C32.8038 43.2981 32.7663 43.4103 32.8413 43.5225C32.8788 43.635 32.9907 43.6725 33.1032 43.635L39.2785 42.2875L36.5466 39.5553Z" fill="#FF6C37"/>
<path id="Vector_8" d="M65.1778 18.9337C62.7825 16.6134 58.9275 16.6881 56.6069 19.1209C54.2866 21.5534 54.3616 25.3709 56.7941 27.6916C57.7544 28.6194 58.9948 29.2034 60.3218 29.3524C61.6489 29.5013 62.9879 29.2069 64.13 28.515L59.8631 24.2481L65.1778 18.9337Z" fill="#EEEEEE"/>
<path id="Vector_9" d="M60.986 29.75C57.4306 29.75 54.5488 26.8681 54.5488 23.3125C54.5488 19.7569 57.4306 16.875 60.986 16.875C62.6328 16.875 64.2422 17.5113 65.4397 18.6716C65.5147 18.7466 65.5522 18.8216 65.5522 18.9334C65.5522 19.0459 65.5147 19.1209 65.4397 19.1956L60.3872 24.2481L64.3544 28.2153C64.5044 28.3653 64.5044 28.5897 64.3544 28.7394L64.2797 28.8144C63.3066 29.4128 62.1463 29.75 60.986 29.75ZM60.986 17.6612C57.8422 17.6612 55.2972 20.2059 55.3347 23.35C55.3347 26.4938 57.8794 29.0387 61.0235 29.0016C61.8844 29.0016 62.745 28.8141 63.531 28.4025L59.6013 24.5103C59.5263 24.4353 59.4891 24.3603 59.4891 24.2481C59.4891 24.1356 59.5263 24.0609 59.6013 23.9862L64.6166 18.9709C63.606 18.1103 62.3335 17.6612 60.986 17.6612Z" fill="#FF6C37"/>
<path id="Vector_10" d="M65.29 19.0459L65.2153 18.9709L59.8631 24.2481L64.0925 28.4775C64.5044 28.2153 64.9156 27.9163 65.2528 27.5794C65.8198 27.0239 66.271 26.3615 66.5801 25.6304C66.8892 24.8993 67.0502 24.1142 67.0536 23.3204C67.0571 22.5267 66.903 21.7402 66.6002 21.0064C66.2975 20.2727 65.8521 19.6063 65.29 19.0459Z" fill="#EEEEEE"/>
<path id="Vector_11" d="M64.13 28.8891C64.0175 28.8891 63.9428 28.8516 63.8678 28.7766L59.6013 24.51C59.5263 24.435 59.4891 24.3603 59.4891 24.2481C59.4891 24.1356 59.5263 24.0606 59.6013 23.9859L64.9156 18.6719C65.0656 18.5219 65.29 18.5219 65.4397 18.6719L65.5522 18.7469C68.0597 21.2541 68.0597 25.2963 65.5897 27.8416C65.2153 28.2156 64.8034 28.5525 64.3544 28.8144C64.2422 28.8519 64.1675 28.8891 64.13 28.8891ZM60.3872 24.2481L64.1675 28.0281C64.4669 27.8413 64.7663 27.5791 64.9906 27.3544C67.1241 25.2209 67.2363 21.7403 65.1778 19.495L60.3872 24.2481Z" fill="#FF6C37"/>
<path id="Vector_12" d="M57.4681 28.3647C57.0361 27.9333 56.4505 27.6911 55.84 27.6911C55.2295 27.6911 54.6439 27.9333 54.2119 28.3647L40.1019 42.4747L42.46 44.8325L57.3931 31.7334C58.3662 30.9097 58.4409 29.45 57.6178 28.4772C57.5428 28.4397 57.5053 28.4022 57.4681 28.3647Z" fill="#EEEEEE"/>
<path id="Vector_13" d="M42.4225 45.2069C42.3103 45.2069 42.2353 45.1694 42.1603 45.0947L39.8025 42.7369C39.767 42.7031 39.7387 42.6624 39.7194 42.6174C39.7001 42.5724 39.6902 42.5239 39.6902 42.4749C39.6902 42.4259 39.7001 42.3774 39.7194 42.3323C39.7387 42.2873 39.767 42.2466 39.8025 42.2128L53.9122 28.1028C54.1599 27.8538 54.4544 27.6561 54.7788 27.5212C55.1032 27.3864 55.451 27.3169 55.8023 27.3169C56.1536 27.3169 56.5015 27.3864 56.8258 27.5212C57.1502 27.6561 57.4447 27.8538 57.6925 28.1028C57.9416 28.3505 58.1393 28.6451 58.2742 28.9694C58.4091 29.2938 58.4785 29.6417 58.4785 29.993C58.4785 30.3443 58.4091 30.6921 58.2742 31.0165C58.1393 31.3409 57.9416 31.6354 57.6925 31.8831L57.5803 31.9953L42.6469 45.0947C42.6097 45.1694 42.5347 45.2069 42.4225 45.2069ZM40.6259 42.4747L42.46 44.3088L57.1312 31.4338C57.9544 30.76 58.0294 29.525 57.3556 28.7019C56.6819 27.8785 55.4468 27.8038 54.6234 28.4769C54.5862 28.5144 54.5487 28.5519 54.4737 28.5894L40.6259 42.4747Z" fill="#FF6C37"/>
<path id="Vector_14" d="M29.2856 58.5313C29.1356 58.6059 29.0609 58.7556 29.0981 58.9053L29.7347 61.6003C29.8847 61.9744 29.6597 62.4238 29.2481 62.5359C28.9487 62.6481 28.6122 62.5359 28.425 62.3116L24.3078 58.2319L37.7441 44.7956L42.385 44.8703L45.5287 48.0144C44.7803 48.6506 40.2516 53.0294 29.2856 58.5313Z" fill="#EEEEEE"/>
<path id="Vector_15" d="M28.9862 62.9097C28.6869 62.9097 28.3875 62.7975 28.2003 62.5731L24.1206 58.4934C24.0456 58.4187 24.0084 58.3437 24.0084 58.2316C24.0084 58.1194 24.0459 58.0444 24.1209 57.9694L37.5569 44.5334C37.6319 44.4584 37.744 44.4209 37.819 44.4209L42.46 44.4959C42.5722 44.4959 42.6469 44.5334 42.7215 44.6081L45.8656 47.7519C45.9406 47.8269 45.9778 47.9391 45.9778 48.0512C45.9778 48.1637 45.9406 48.2384 45.8281 48.3134L45.5662 48.5381C41.599 52.0184 36.2094 55.4994 29.51 58.8303L30.1465 61.4875C30.2587 61.9741 30.034 62.4981 29.585 62.76C29.3603 62.8722 29.1734 62.9097 28.9862 62.9097ZM24.869 58.2316L28.7244 62.0491C28.8362 62.2362 29.0609 62.3109 29.2481 62.1987C29.4353 62.0866 29.5103 61.8619 29.3981 61.6747L28.7619 58.98C28.6869 58.6431 28.8362 58.3437 29.1359 58.1941C35.7603 54.8631 41.1125 51.42 45.0422 48.0141L42.2728 45.2444L37.9687 45.1694L24.869 58.2316Z" fill="#FF6C37"/>
<path id="Vector_16" d="M21.1265 61.4503L24.3453 58.2316L29.1359 63.0222L21.5009 62.4984C21.164 62.4609 20.9394 62.1616 20.9769 61.8244C20.9769 61.6747 21.014 61.525 21.1265 61.4503Z" fill="#EEEEEE"/>
<path id="Vector_17" d="M29.136 63.359L21.4635 62.835C20.9019 62.7975 20.5275 62.3112 20.565 61.7497C20.6025 61.525 20.6775 61.3006 20.8647 61.1509L24.0835 57.9322C24.1172 57.8967 24.1579 57.8685 24.2029 57.8492C24.2479 57.8299 24.2964 57.8199 24.3453 57.8199C24.3943 57.8199 24.4428 57.8299 24.4878 57.8492C24.5328 57.8685 24.5734 57.8967 24.6072 57.9322L29.3978 62.7228C29.5103 62.835 29.5478 62.9847 29.4728 63.1347C29.3978 63.2844 29.2853 63.359 29.136 63.359ZM24.3453 58.7556L21.3885 61.7122C21.2763 61.7872 21.2763 61.9744 21.3885 62.0491C21.426 62.0866 21.4635 62.1241 21.5385 62.1241L28.1628 62.5731L24.3453 58.7556ZM36.4341 46.5172C36.2094 46.5172 36.0597 46.33 36.0597 46.1428C36.0597 46.0306 36.0972 45.9559 36.1722 45.8809L39.8025 42.2506C39.8363 42.2151 39.8769 42.1868 39.922 42.1675C39.967 42.1481 40.0155 42.1382 40.0646 42.1382C40.1136 42.1382 40.1621 42.1481 40.2071 42.1675C40.2522 42.1868 40.2928 42.2151 40.3266 42.2506L42.6844 44.6084C42.7966 44.7206 42.8341 44.8328 42.7966 44.9828C42.7591 45.095 42.6469 45.2072 42.4975 45.2447L36.5091 46.5172H36.4341ZM40.0644 43.0365L37.5944 45.5069L41.6363 44.6456L40.0644 43.0365Z" fill="#FF6C37"/>
<path id="Vector_18" d="M42.385 44.87L38.2682 45.7684C37.9688 45.8434 37.6691 45.6562 37.5944 45.3569C37.5569 45.1697 37.5944 44.9825 37.7441 44.8328L40.0269 42.5497L42.385 44.87Z" fill="#EEEEEE"/>
<path id="Vector_19" d="M38.1931 46.1428C38.0699 46.1441 37.9477 46.1207 37.8336 46.0742C37.7195 46.0276 37.6159 45.9587 37.5287 45.8716C37.4416 45.7844 37.3727 45.6808 37.3262 45.5667C37.2796 45.4526 37.2562 45.3304 37.2575 45.2072C37.2575 44.9453 37.3697 44.7206 37.5194 44.5338L39.8025 42.2506C39.8363 42.2151 39.8769 42.1868 39.922 42.1675C39.967 42.1482 40.0155 42.1382 40.0645 42.1382C40.1135 42.1382 40.162 42.1482 40.2071 42.1675C40.2521 42.1868 40.2928 42.2151 40.3266 42.2506L42.6844 44.6084C42.7966 44.7206 42.8341 44.8328 42.7966 44.9828C42.7591 45.095 42.6469 45.2072 42.4975 45.2447L38.3803 46.1428H38.1931ZM40.0644 43.0366L38.0434 45.0575C37.9687 45.1325 37.9687 45.2072 38.0059 45.2822C38.0434 45.3569 38.1184 45.3944 38.2306 45.3944L41.6737 44.6456L40.0644 43.0366ZM65.3275 22.6384C65.2528 22.4141 64.9906 22.3019 64.7659 22.3769C64.5416 22.4513 64.4294 22.7134 64.5044 22.9381C64.5044 22.9756 64.5416 23.0131 64.5416 23.0503C64.7659 23.4997 64.6916 24.0609 64.3919 24.4725C64.2422 24.66 64.2797 24.9219 64.4294 25.0716C64.6166 25.2209 64.8784 25.1841 65.0281 24.9966C65.5897 24.2853 65.7019 23.3872 65.3275 22.6384Z" fill="#FF6C37"/>
</g>
</g>
<defs>
<filter id="filter0_d_84_184" x="0" y="0" width="88" height="88" filterUnits="userSpaceOnUse" color-interpolation-filters="sRGB">
<feFlood flood-opacity="0" result="BackgroundImageFix"/>
<feColorMatrix in="SourceAlpha" type="matrix" values="0 0 0 0 0 0 0 0 0 0 0 0 0 0 0 0 0 0 127 0" result="hardAlpha"/>
<feOffset dy="4"/>
<feGaussianBlur stdDeviation="2"/>
<feComposite in2="hardAlpha" operator="out"/>
<feColorMatrix type="matrix" values="0 0 0 0 0 0 0 0 0 0 0 0 0 0 0 0 0 0 0.25 0"/>
<feBlend mode="normal" in2="BackgroundImageFix" result="effect1_dropShadow_84_184"/>
<feBlend mode="normal" in="SourceGraphic" in2="effect1_dropShadow_84_184" result="shape"/>
</filter>
<clipPath id="clip0_84_184">
<rect width="80" height="80" fill="white" transform="translate(4)"/>
</clipPath>
</defs>
</svg>
