<svg width="80" height="80" viewBox="0 0 80 80" fill="none" xmlns="http://www.w3.org/2000/svg">
<g id="skill-icons:arduino" clip-path="url(#clip0_92_53)">
<g id="Group">
<path id="Vector" d="M61.25 0H18.75C8.39466 0 0 8.39466 0 18.75V61.25C0 71.6053 8.39466 80 18.75 80H61.25C71.6053 80 80 71.6053 80 61.25V18.75C80 8.39466 71.6053 0 61.25 0Z" fill="#00979C"/>
<path id="Vector_2" fill-rule="evenodd" clip-rule="evenodd" d="M5.9375 42.66V37.5297C6.045 37.4763 6.045 37.3694 6.045 37.2625C7.65844 30.2619 12.0687 26.04 19.0606 24.3831C19.6522 24.2228 20.2975 24.2763 20.8894 24.0625H24.3312C24.385 24.1694 24.5466 24.1159 24.6541 24.1159C28.0962 24.49 31.2156 25.7191 33.9584 27.8569C36.325 29.6203 38.1538 31.865 39.8209 34.2697C40.0359 34.5903 40.1437 34.5903 40.3587 34.2697C41.3269 32.8803 42.3488 31.5444 43.5319 30.3153C46.3825 27.2691 49.8247 25.1313 54.0197 24.3831C54.6113 24.2228 55.3103 24.2763 55.9022 24.0625H59.2366C59.2903 24.1694 59.3981 24.1159 59.5056 24.1159C60.5275 24.2228 61.4956 24.4366 62.4638 24.7038C69.6706 26.7881 74.78 33.3612 74.3497 40.7897C74.0269 47.0425 70.8538 51.5316 65.3141 54.3638C62.5713 55.8603 59.5594 56.2344 56.44 56.1809C52.3525 56.1275 48.8028 54.7378 45.7372 52.0659C43.5856 50.1953 41.9184 47.9509 40.3587 45.5994C40.1437 45.2787 40.0359 45.3322 39.8209 45.6528C38.8528 47.0959 37.8309 48.5388 36.6478 49.9281C34.5503 52.2797 32.13 54.2034 29.1181 55.2191C25.4069 56.5016 21.6422 56.555 17.8775 55.5397C12.4453 53.9897 8.73438 50.5694 6.69062 45.3322C6.36781 44.4772 6.20625 43.5153 5.9375 42.66ZM23.0406 50.5159C26.1063 50.6228 28.7416 49.6075 31.0003 47.5234C33.3131 45.3856 34.9803 42.7134 36.6478 40.095C36.7016 39.9347 36.7016 39.8278 36.5941 39.6675C35.1956 37.4762 33.7434 35.2853 31.8072 33.4681C28.0962 29.9409 23.7397 28.7653 18.8456 30.315C14.8119 31.6513 12.23 34.4834 11.6384 38.7587C11.0469 42.7669 12.6066 45.9734 15.8334 48.3784C17.985 49.9281 20.4053 50.5694 23.0406 50.5159ZM57.1391 50.5159C58.3222 50.5159 59.5056 50.4625 60.635 50.1419C64.8838 48.8594 67.6806 46.2406 68.4875 41.8584C69.2941 37.5297 67.6269 34.0559 63.9697 31.5978C59.9359 28.8187 54.0734 29.0859 49.9859 32.1322C47.2431 34.1628 45.4144 36.8884 43.5856 39.7209C43.4781 39.8813 43.5319 39.9881 43.5856 40.1484C45.0378 42.4463 46.49 44.7444 48.3725 46.7216C50.7388 49.2334 53.5894 50.6763 57.1391 50.5159Z" fill="white"/>
<path id="Vector_3" fill-rule="evenodd" clip-rule="evenodd" d="M22.9869 38.3847C24.7078 38.3847 26.4828 38.4381 28.2037 38.3847C28.6341 38.3847 28.6878 38.4916 28.6878 38.9191C28.634 39.3986 28.634 39.8827 28.6878 40.3622C28.7416 40.7897 28.6341 40.8966 28.15 40.8966H21.2656C20.0825 40.8966 18.8994 40.8431 17.7159 40.8966C17.3394 40.8966 17.2319 40.7897 17.2319 40.3622C17.2856 39.8813 17.2856 39.4003 17.2319 38.8656C17.2319 38.4916 17.3394 38.3847 17.7162 38.3847C19.4372 38.4381 21.2119 38.3847 22.9869 38.3847ZM56.8703 34.9644C57.3003 34.9644 57.7306 35.0178 58.1072 34.9644C58.3762 34.9644 58.4837 35.0713 58.4837 35.3384C58.43 36.0869 58.4837 36.835 58.43 37.5831C58.43 37.9572 58.5375 38.0641 58.9141 38.0641C59.6131 38.0106 60.3662 38.0641 61.1191 38.0106C61.4419 38.0106 61.5494 38.0641 61.5494 38.4381V40.8966C61.5494 41.1638 61.4419 41.2706 61.1728 41.2706C60.42 41.2172 59.6669 41.2706 58.8603 41.2172C58.5375 41.2172 58.43 41.3241 58.43 41.6447C58.4837 42.3928 58.43 43.1409 58.4837 43.8894C58.4837 44.21 58.3762 44.3703 58.0534 44.3703C57.2475 44.3169 56.439 44.3169 55.6331 44.3703C55.3106 44.3703 55.2028 44.2634 55.2028 43.9428C55.2566 43.1409 55.2028 42.3928 55.2566 41.5913C55.2566 41.3241 55.1491 41.2172 54.8803 41.2172C54.1272 41.2706 53.3744 41.2172 52.6212 41.2706C52.1909 41.2706 52.1372 41.1103 52.1372 40.7897C52.1372 40.0416 52.1909 39.2931 52.1372 38.545C52.0834 38.1175 52.2987 38.0106 52.675 38.0106C53.4281 38.0641 54.1272 38.0106 54.8803 38.0641C55.1491 38.0641 55.2566 37.9572 55.2566 37.69C55.2028 36.9419 55.2566 36.1403 55.2028 35.3922C55.2028 35.0713 55.3106 34.9644 55.6331 34.9644C56.0634 35.0178 56.44 34.9644 56.8703 34.9644Z" fill="white"/>
</g>
</g>
<defs>
<clipPath id="clip0_92_53">
<rect width="80" height="80" fill="white"/>
</clipPath>
</defs>
</svg>
