<svg width="88" height="85" viewBox="0 0 88 85" fill="none" xmlns="http://www.w3.org/2000/svg">
<g id="skill-icons:styledcomponents" clipPath="url(#clip0_76_82)" filter="url(#filter0_d_76_82)">
<g id="Group">
<path id="Vector" d="M65.25 0H22.75C12.3947 0 4 8.39466 4 18.75V61.25C4 71.6053 12.3947 80 22.75 80H65.25C75.6053 80 84 71.6053 84 61.25V18.75C84 8.39466 75.6053 0 65.25 0Z" fill="url(#paint0_linear_76_82)"/>
<path id="Vector_2" d="M7.58969 40.3372L23.3097 46.7072V51.1662L4.70032 42.5441V39.9278L7.58969 40.3372ZM23.3097 35.105L7.6125 41.5656L4.70063 41.8844V39.2453L23.3094 30.6459L23.3097 35.105ZM79.4284 41.2472L63.2534 34.9456V30.6003L82.6816 39.1997V41.8616L79.4284 41.2472ZM63.2534 46.7981L79.4741 40.36L82.6816 39.8822V42.5212L63.2534 51.1434V46.7981Z" fill="white"/>
<path id="Vector_3" fill-rule="evenodd" clipRule="evenodd" d="M59.0241 19.0934C58.9341 20.5203 58.2913 22.0103 58.4703 23.3975C59.5931 25.3831 62.0644 25.6997 64.1031 25.8359C65.5156 26.0884 65.4978 25.1531 65.4031 24.1025L65.4203 19.0637C63.2881 19.0716 61.1553 19.0428 59.0241 19.0934ZM42.2113 23.0841C38.74 23.6734 35.2213 25.3322 32.3334 27.3291C30.0091 29.1381 34.3288 30.8912 35.8959 31.1844C39.0491 31.2228 41.8456 29.0959 43.9169 26.8884C44.5931 25.9603 45.4378 24.5394 44.5881 23.4634C43.9394 22.9009 42.9959 23.0372 42.2113 23.0841ZM49.5978 28.1325C46.7438 28.6762 44.0281 29.8525 41.6253 31.4903C39.8638 32.0434 38.4119 33.9775 40.5947 34.9466C42.8869 36.7731 45.5434 36.3256 47.6544 35.0925C49.5875 33.9434 51.6756 32.5256 52.57 30.3625C53.4147 27.9928 51.2353 27.905 49.5978 28.1325ZM57.6944 37.3147C57.1628 39.5347 54.9272 40.5441 53.7378 42.3031C52.7653 43.5862 53.2156 45.0978 54.3228 46.1078C54.8619 47.2256 55.8069 47.8503 56.8203 46.8794C59.4303 45.105 60.1522 41.6487 60.0438 38.6541C60.2366 37.4172 58.8175 38.5353 57.6944 37.3147ZM47.7622 41.4844C44.2963 42.0775 40.8297 43.7662 37.9406 45.76C35.6978 47.5666 39.9219 49.2534 41.5019 49.5209C44.7134 49.5256 47.5781 47.4559 49.6088 45.1053C50.315 44.1719 51.1709 42.3591 49.7725 41.6169C49.1472 41.3519 48.4213 41.4297 47.7622 41.4844Z" fill="#B956A6"/>
<path id="Vector_4" fill-rule="evenodd" clipRule="evenodd" d="M32.3335 27.3291C29.6678 28.3956 27.0966 29.6906 24.5572 31.0469C24.0853 32.8016 24.4638 34.9744 24.3416 36.8984C24.3322 44.8097 24.3366 52.7213 24.3353 60.6325H30.2166C31.4041 59.5144 32.8916 58.6959 34.1816 57.6806C39.1485 54.1184 44.1138 50.5425 49.0741 46.9903C49.4391 47.1544 49.2053 44.8431 48.4047 46.4484C46.5075 48.2337 43.9894 49.7022 41.3241 49.5588C39.8116 49.0613 37.3735 48.2172 37.3581 46.3638C38.4228 45.1103 35.3938 47.02 34.565 47.2934C31.8706 48.5872 29.24 50.0319 26.54 51.3016C27.1888 50.6047 28.4025 49.955 29.2631 49.2638C35.411 44.8506 41.5572 40.4203 47.7197 36.0106C48.905 35.1784 50.05 34.2706 51.2719 33.4928C51.3835 33.9238 51.5928 31.4325 50.6841 32.9663C48.8316 34.8025 46.3328 36.1694 43.6975 36.1881C42.2153 35.7381 39.0585 34.6622 39.7613 32.7484C40.1041 32.0769 36.5775 34.18 38.1356 32.9941C39.7941 31.7822 41.4656 30.5919 43.1369 29.3925C43.981 29.3291 43.8013 26.1938 42.6544 28.2163C40.7278 29.9091 38.1966 31.4578 35.5431 31.0906C34.0525 30.6616 32.2641 29.8306 31.7222 28.2719C31.5428 27.8975 32.726 27.3141 32.3335 27.3291ZM43.3769 29.2644C43.2291 29.6872 43.6447 29.11 43.3769 29.2644V29.2644Z" fill="#FCCC44"/>
<path id="Vector_5" fill-rule="evenodd" clipRule="evenodd" d="M60.2184 25.2344C59.3862 29.2081 58.4765 33.3672 57.6943 37.3147C59.9418 40.1472 60.1596 35.5253 60.5528 34.2184C61.1881 31.4869 61.9406 29.4244 62.0203 26.5963C62.189 25.6309 61.0546 25.0466 60.2184 25.2344ZM62.7968 28.3506C62.7265 28.7578 62.8993 28.4272 62.7968 28.3506V28.3506ZM60.175 37.2613C60.2831 37.0281 60.2831 37.4941 60.175 37.2613V37.2613Z" fill="#62777F"/>
<path id="Vector_6" fill-rule="evenodd" clipRule="evenodd" d="M61.6925 25.6844C62.3938 29.6225 60.071 34.4069 59.3113 38.12C61.0363 36.8506 62.3691 31.0913 62.7097 28.8369C62.7975 28.5791 62.9057 27.9303 62.9291 27.9069C63.0375 27.3597 64.0478 26.4325 64.1032 25.8359C64.6913 25.4209 61.2125 25.3544 61.6925 25.6844ZM60.2622 37.2613C60.1538 37.0281 60.1538 37.4941 60.2622 37.2613V37.2613Z" fill="#4E5E67"/>
<path id="Vector_7" fill-rule="evenodd" clipRule="evenodd" d="M32.3919 27.3947C31.4194 28.3684 31.7844 28.1306 32.5082 27.3209L32.3919 27.3947ZM42.9107 27.8769C41.7841 29.5697 37.7216 30.9853 37.2101 31.095C39.6538 30.6372 41.9316 29.1169 43.5344 27.3362C43.2797 27.4497 43.1285 27.7163 42.9107 27.8769ZM31.7238 28.4266C32.331 29.8866 34.5388 30.8566 35.6116 31.0828C34.1469 30.6109 32.4229 29.7741 31.7238 28.4266ZM43.2894 29.2709C42.9829 29.6328 41.891 30.1741 41.3154 30.7053C40.0807 31.6159 38.8035 32.4622 37.5829 33.3956C38.3601 33.3622 40.6376 31.6609 39.4701 33.3872C40.4594 35.09 42.6135 36.2741 44.5776 36.1659C47.1713 35.7588 49.5632 34.3247 51.2826 32.3303C49.1954 34.3956 46.436 36.3394 43.3826 36.0716C41.9047 35.7303 37.8666 33.6444 40.5679 32.1822C41.5204 31.3988 43.1626 30.9884 43.3485 29.6116C43.3094 29.4397 43.6297 29.2719 43.2894 29.2709ZM35.896 31.1844C36.8788 31.0563 36.8788 31.3128 35.896 31.1844V31.1844ZM51.2094 33.5359C47.3097 36.2528 43.4666 39.0759 39.6007 41.8416C35.2194 44.9772 30.8569 48.1244 26.4769 51.2575C28.1238 50.7022 29.7738 49.6178 31.4097 48.8688C33.6629 47.6769 36.0385 46.7353 38.1466 45.2875C42.3147 42.8337 46.7229 40.4959 49.9288 36.7419C50.6285 35.9212 51.3301 34.6003 51.3613 33.7119C51.2604 33.7403 51.3369 33.3566 51.2094 33.5359ZM37.9407 45.76C37.2391 46.5528 36.9541 47.1194 37.6822 46.1112C37.6694 46.2281 38.2732 45.4853 37.9407 45.76ZM48.6144 46.1394C46.7663 48.0881 44.0329 49.4937 41.4682 49.5884C44.4332 49.61 47.1082 47.85 49.1169 45.7738C48.9851 45.6144 48.7179 46.145 48.6144 46.1394ZM49.1791 46.7519C42.9701 51.2719 36.5466 55.9603 30.3166 60.4641C31.2979 60.7719 33.4351 60.9162 34.4104 59.6597C36.4854 58.2278 38.8182 57.175 40.9001 55.7237C43.9147 53.7675 47.1426 51.6294 48.8547 48.3416C48.9363 47.9006 49.5422 47.1075 49.1791 46.7519ZM37.3626 47.0387C37.6507 48.255 41.2526 49.6509 40.8619 49.3838C39.5338 48.9181 38.2163 48.1925 37.3626 47.0387Z" fill="#DC9624"/>
</g>
</g>
<defs>
<filter id="filter0_d_76_82" x="0" y="0" width="88" height="88" filterUnits="userSpaceOnUse" color-interpolation-filters="sRGB">
<feFlood flood-opacity="0" result="BackgroundImageFix"/>
<feColorMatrix in="SourceAlpha" type="matrix" values="0 0 0 0 0 0 0 0 0 0 0 0 0 0 0 0 0 0 127 0" result="hardAlpha"/>
<feOffset dy="4"/>
<feGaussianBlur stdDeviation="2"/>
<feComposite in2="hardAlpha" operator="out"/>
<feColorMatrix type="matrix" values="0 0 0 0 0 0 0 0 0 0 0 0 0 0 0 0 0 0 0.25 0"/>
<feBlend mode="normal" in2="BackgroundImageFix" result="effect1_dropShadow_76_82"/>
<feBlend mode="normal" in="SourceGraphic" in2="effect1_dropShadow_76_82" result="shape"/>
</filter>
<linearGradient id="paint0_linear_76_82" x1="4" y1="80" x2="84" y2="0" gradientUnits="userSpaceOnUse">
<stop stop-color="#DB7093"/>
<stop offset="1" stop-color="#F3B661"/>
</linearGradient>
<clipPath id="clip0_76_82">
<rect width="80" height="80" fill="white" transform="translate(4)"/>
</clipPath>
</defs>
</svg>
