<svg width="30" height="30" viewBox="0 0 64 64" fill="none" xmlns="http://www.w3.org/2000/svg">
<path d="M21.539 38.05C21.539 36.728 20.629 35.732 19.423 35.732H3.60299C2.39399 35.732 1.48499 36.728 1.48499 38.05C1.48499 39.337 2.40599 40.31 3.63099 40.31H9.12599V58.123C9.12599 59.422 10.112 60.321 11.523 60.321C12.939 60.321 13.929 59.422 13.929 58.123V40.31H19.424C20.609 40.31 21.539 39.317 21.539 38.05ZM31.05 35.3C24.322 35.3 19.97 40.257 19.97 47.925C19.97 55.63 24.318 60.609 31.05 60.609C37.745 60.609 42.07 55.642 42.07 47.958C42.07 40.267 37.749 35.3 31.05 35.3ZM31.05 56.062C27.235 56.062 24.866 52.958 24.866 47.958C24.866 42.938 27.235 39.816 31.05 39.816C34.83 39.816 37.177 42.872 37.177 47.782C37.18 53.044 34.945 56.062 31.05 56.062ZM54.4 35.73H48.024C45.405 35.73 44.075 37.117 44.075 39.855V58.062C44.075 59.414 45.03 60.32 46.45 60.32C47.844 60.32 48.821 59.404 48.821 58.092V50.986H54.289C59.442 50.986 62.52 48.062 62.52 43.158C62.52 38.51 59.484 35.73 54.4 35.73ZM57.658 43.217C57.658 45.446 56.537 46.53 54.226 46.53H48.82V40.218H54.226C56.537 40.219 57.658 41.199 57.658 43.217ZM37.825 29.542V19.236H40.712C42.409 19.236 43.805 17.611 43.971 15.528L30.978 0.583008L18.071 15.522C18.239 17.605 19.633 19.235 21.332 19.235H24.219V29.541L37.825 29.542Z" fill="#25333A"/>
</svg>
