<svg xmlns="http://www.w3.org/2000/svg" width="40" height="40" viewBox="0 0 40 40" fill="none">
  <g clipPath="url(#clip0_87_274)">
    <path d="M40 20.4999C40 24.9679 38.728 28.9859 36.184 32.5539C33.642 36.1219 30.356 38.5899 26.328 39.9599C25.86 40.0499 25.516 39.9879 25.3 39.7739C25.1934 39.6702 25.1095 39.5456 25.0534 39.408C24.9973 39.2703 24.9702 39.1225 24.974 38.9739V33.3399C24.974 31.6139 24.522 30.3499 23.62 29.5499C24.5211 29.4594 25.4138 29.299 26.29 29.0699C27.078 28.8559 27.894 28.5099 28.736 28.0299C29.5455 27.5769 30.2616 26.9742 30.846 26.2539C31.41 25.5499 31.87 24.6159 32.226 23.4499C32.582 22.2839 32.76 20.9459 32.76 19.4339C32.76 17.2799 32.074 15.4459 30.704 13.9339C31.344 12.3139 31.276 10.4999 30.494 8.48788C30.008 8.32788 29.306 8.42788 28.386 8.78188C27.5515 9.09537 26.7491 9.48852 25.99 9.95588L25 10.5959C23.3739 10.1323 21.6908 9.89935 20 9.90388C18.3091 9.9 16.626 10.1336 15 10.5979C14.6383 10.3474 14.2695 10.1073 13.894 9.87788C13.434 9.59188 12.708 9.24988 11.718 8.84988C10.73 8.44989 9.982 8.32988 9.478 8.48988C8.716 10.4999 8.654 12.3139 9.298 13.9339C7.926 15.4459 7.238 17.2799 7.238 19.4339C7.238 20.9459 7.418 22.2799 7.774 23.4379C8.13 24.5939 8.586 25.5279 9.14 26.2399C9.71447 26.9677 10.4267 27.5753 11.236 28.0279C12.078 28.5079 12.896 28.8559 13.684 29.0679C14.474 29.2839 15.364 29.4439 16.354 29.5499C15.66 30.1899 15.234 31.1079 15.078 32.2999C14.7051 32.4805 14.3115 32.6149 13.906 32.6999C13.4173 32.7958 12.92 32.8407 12.422 32.8339C11.848 32.8339 11.282 32.6419 10.716 32.2599C10.152 31.8759 9.67 31.3199 9.27 30.5919C8.95753 30.0413 8.52644 29.5672 8.008 29.2039C7.496 28.8479 7.066 28.6339 6.718 28.5639L6.198 28.4839C5.834 28.4839 5.582 28.5239 5.442 28.6039C5.302 28.6839 5.262 28.7839 5.312 28.9099C5.37082 29.0456 5.4497 29.1716 5.546 29.2839C5.64591 29.404 5.76008 29.5114 5.886 29.6039L6.066 29.7359C6.45 29.9159 6.826 30.2539 7.2 30.7519C7.574 31.2499 7.848 31.7039 8.02 32.1119L8.28 32.7259C8.506 33.4019 8.888 33.9499 9.428 34.3679C9.966 34.7879 10.548 35.0539 11.172 35.1679C11.796 35.2839 12.4 35.3479 12.982 35.3559C13.562 35.3639 14.046 35.3339 14.428 35.2619L15.026 35.1559C15.026 35.8319 15.03 36.6239 15.04 37.5319L15.052 38.9719C15.052 39.2919 14.94 39.5599 14.712 39.7719C14.488 39.9879 14.14 40.0499 13.672 39.9599C9.644 38.5899 6.358 36.1199 3.816 32.5539C1.272 28.9859 0 24.9679 0 20.4999C0 16.7799 0.894 13.3519 2.682 10.2099C4.41297 7.1282 6.9235 4.55559 9.962 2.74988C12.991 0.926509 16.4646 -0.0251242 20 -0.000115757C23.5361 -0.0254931 27.0104 0.926154 30.04 2.74988C33.0778 4.55586 35.5876 7.12845 37.318 10.2099C39.106 13.3499 40 16.7819 40 20.4999Z" fill="#112D4E"/>
  </g>
  <defs>
    <clipPath id="clip0_87_274">
      <rect width="40" height="40" fill="white"/>
    </clipPath>
  </defs>
</svg>