<svg width="80" height="80" viewBox="0 0 80 80" fill="none" xmlns="http://www.w3.org/2000/svg">
<path d="M40.4276 46.75C39.2251 47.3025 37.9076 48.0225 35.2701 49.47C34.2701 50.0325 33.2251 50.595 32.2526 51.125C32.1851 51.0575 32.1151 50.9725 32.0476 50.9025C26.8301 45.3275 17.1801 41.39 17.5901 33.9025C17.7426 31.175 18.6801 24.015 36.1226 15.32C50.4776 8.245 61.9001 10.205 63.8726 14.5525C66.7076 20.75 57.7501 32.2825 42.9251 33.955C41.2843 34.2878 39.5897 34.2476 37.9666 33.8374C36.3434 33.4272 34.8332 32.6574 33.5476 31.585C32.7626 30.7325 32.6451 30.6825 32.3551 30.8525C31.8776 31.1025 32.1851 31.875 32.3551 32.3175C32.9206 33.3414 33.6856 34.2415 34.605 34.9646C35.5243 35.6877 36.5793 36.2191 37.7076 36.5275C43.5416 37.7885 49.6243 37.186 55.0976 34.805C64.0826 31.3275 71.0976 21.66 69.0426 13.555C66.9801 5.3375 53.3401 2.6275 40.4351 7.2125C32.3533 9.93598 24.8864 14.2233 18.4601 19.83C11.3501 26.48 10.2251 32.26 10.6851 34.68C12.3401 43.2725 24.1851 48.865 28.9351 53.0075C28.6851 53.145 28.4751 53.2575 28.2876 53.365C25.9176 54.5425 16.8826 59.265 14.6301 64.26C12.0726 69.92 15.0401 73.9775 17.0001 74.5225C19.9538 75.23 23.0547 74.9974 25.8699 73.8572C28.685 72.717 31.0738 70.7261 32.7026 68.1625C34.0858 66.0367 34.9351 63.6083 35.1784 61.0838C35.4217 58.5593 35.0518 56.0133 34.1001 53.6625C34.6616 53.2146 35.2604 52.8156 35.8901 52.47C37.1001 51.755 38.2526 51.05 39.2751 50.505C42.776 48.8651 46.5966 48.0208 50.4626 48.0325C58.5776 48.9875 60.1801 54.05 59.8726 56.1825C59.7287 56.9391 59.4245 57.6561 58.9803 58.2853C58.5361 58.9144 57.9624 59.4412 57.2976 59.83C56.7351 60.1875 56.5476 60.3075 56.5976 60.5625C56.6651 60.9375 56.9376 60.92 57.4151 60.8525C58.6343 60.4672 59.7085 59.722 60.4964 58.715C61.2844 57.7079 61.7493 56.4861 61.8301 55.21C62.0801 50.21 57.3126 44.725 48.8726 44.775C46.3454 44.7793 43.8434 45.2779 41.5076 46.2425C41.1326 46.3975 40.7684 46.5642 40.4151 46.7425L40.4276 46.75ZM28.3651 66.3475C25.6701 69.28 21.9201 70.3875 20.3001 69.45C18.5501 68.45 19.2426 64.1125 22.5501 61.01C24.509 59.245 26.6263 57.6642 28.8751 56.2875C29.2676 56.0375 29.8476 55.7075 30.5451 55.2875L30.7326 55.185L31.1426 54.935C31.7325 56.9128 31.7861 59.0118 31.2981 61.0171C30.8101 63.0224 29.7978 64.862 28.3651 66.3475Z" fill="#CD6799"/>
</svg>
