<svg width="12" height="20" viewBox="0 0 12 20" fill="none" xmlns="http://www.w3.org/2000/svg">
<path d="M11.0606 19.546C11.3418 19.2647 11.4998 18.8832 11.4998 18.4855C11.4998 18.0877 11.3418 17.7063 11.0606 17.425L3.63557 9.99999L11.0606 2.57499C11.3338 2.29209 11.485 1.91318 11.4816 1.51989C11.4782 1.12659 11.3204 0.750372 11.0423 0.47226C10.7642 0.194147 10.388 0.036396 9.99467 0.0329781C9.60138 0.0295601 9.22248 0.180752 8.93957 0.453989L0.454072 8.93949C0.172866 9.22078 0.0148926 9.60224 0.0148926 9.99999C0.0148926 10.3977 0.172866 10.7792 0.454072 11.0605L8.93957 19.546C9.22086 19.8272 9.60233 19.9852 10.0001 19.9852C10.3978 19.9852 10.7793 19.8272 11.0606 19.546Z" fill="#7F5AF0"/>
</svg>
