<svg width="24" height="24" viewBox="0 0 24 24" fill="none" xmlns="http://www.w3.org/2000/svg">
<path d="M7.93943 2.45401C7.65822 2.7353 7.50025 3.11676 7.50025 3.51451C7.50025 3.91226 7.65822 4.29372 7.93943 4.57501L15.3644 12L7.93943 19.425C7.66619 19.7079 7.515 20.0868 7.51842 20.4801C7.52183 20.8734 7.67959 21.2496 7.9577 21.5277C8.23581 21.8059 8.61203 21.9636 9.00533 21.967C9.39862 21.9704 9.77752 21.8192 10.0604 21.546L18.5459 13.0605C18.8271 12.7792 18.9851 12.3978 18.9851 12C18.9851 11.6023 18.8271 11.2208 18.5459 10.9395L10.0604 2.45401C9.77914 2.1728 9.39767 2.01483 8.99993 2.01483C8.60218 2.01483 8.22072 2.1728 7.93943 2.45401Z" fill="#7F5AF0"/>
</svg>
