<svg width="30" height="30" viewBox="0 0 30 30" fill="none" xmlns="http://www.w3.org/2000/svg">
<path d="M24.4324 22.4426C24.6966 22.7068 24.845 23.0651 24.845 23.4387C24.845 23.8123 24.6966 24.1706 24.4324 24.4348C24.1682 24.699 23.8099 24.8474 23.4363 24.8474C23.0627 24.8474 22.7044 24.699 22.4402 24.4348L15 16.9922L7.55737 24.4324C7.29319 24.6966 6.93489 24.845 6.56128 24.845C6.18767 24.845 5.82936 24.6966 5.56518 24.4324C5.301 24.1683 5.15259 23.81 5.15259 23.4364C5.15259 23.0627 5.301 22.7044 5.56518 22.4403L13.0078 15L5.56753 7.55744C5.30335 7.29326 5.15493 6.93496 5.15493 6.56135C5.15493 6.18774 5.30335 5.82944 5.56753 5.56526C5.83171 5.30108 6.19001 5.15266 6.56362 5.15266C6.93723 5.15266 7.29553 5.30108 7.55972 5.56526L15 13.0078L22.4425 5.56408C22.7067 5.2999 23.065 5.15149 23.4386 5.15149C23.8122 5.15149 24.1705 5.2999 24.4347 5.56408C24.6989 5.82827 24.8473 6.18657 24.8473 6.56018C24.8473 6.93379 24.6989 7.29209 24.4347 7.55627L16.9921 15L24.4324 22.4426Z" fill="white"/>
</svg>
