<svg width="15" height="21" viewBox="0 0 15 21" fill="none" xmlns="http://www.w3.org/2000/svg">
<g clip-path="url(#clip0_22_503)">
<path d="M3.67492 0.333374H7.3351V6.81501H3.67496C-1.15195 6.64794 -1.2007 0.508843 3.67492 0.333374ZM3.67492 13.5739H7.3351V7.09224H3.67496C-1.20065 7.26771 -1.15195 13.4068 3.67492 13.5739ZM11.3085 0.333374H7.6482V6.81501H11.3085C16.2003 6.58322 16.1393 0.465679 11.3085 0.333374ZM7.3351 17.092V13.8511H3.67496C0.688111 13.8511 -1.20065 16.9517 0.876626 19.1788C2.85716 21.3861 7.33514 20.2856 7.33514 17.092M14.9761 10.3331C14.9761 7.84244 11.9101 6.2774 9.47048 7.52271C7.03091 8.76802 7.03086 11.8981 9.47048 13.1435C11.9101 14.3888 14.9761 12.8237 14.9761 10.3331Z" fill="white"/>
</g>
<defs>
<clipPath id="clip0_22_503">
<rect width="15" height="20" fill="white" transform="translate(0 0.333374)"/>
</clipPath>
</defs>
</svg>
