<svg width="30" height="31" viewBox="0 0 30 31" fill="none" xmlns="http://www.w3.org/2000/svg">
<g clip-path="url(#clip0_87_249)">
<rect width="30" height="30" transform="translate(0 0.5)" fill="black"/>
<path d="M3.75 0.5C1.6725 0.5 0 2.1725 0 4.25V26.75C0 28.8275 1.6725 30.5 3.75 30.5H26.25C28.3275 30.5 30 28.8275 30 26.75V4.25C30 2.1725 28.3275 0.5 26.25 0.5H3.75ZM12.3538 8.3125C13.1413 8.3125 13.61 8.6875 13.76 9.4375L15.5887 19.8162C16.1696 19.0471 16.6471 18.4 17.0212 17.875C17.6431 16.9799 18.1801 16.0287 18.625 15.0337C19.1317 13.9646 19.385 13.0083 19.385 12.165C19.385 11.6592 19.2442 11.2562 18.9625 10.9562C18.7 10.6379 18.2029 10.235 17.4713 9.7475C18.2213 8.79083 19.1587 8.3125 20.2837 8.3125C20.8837 8.3125 21.3808 8.49083 21.775 8.8475C22.1875 9.20333 22.3933 9.72833 22.3925 10.4225C22.3925 11.585 21.905 13.0383 20.93 14.7825C19.9742 16.5075 18.1279 19.1042 15.3912 22.5725L12.6075 22.7675L10.4688 10.7325H7.65625V9.55C8.40625 9.30583 9.2875 9.04333 10.3 8.7625C11.3125 8.4625 11.9971 8.3125 12.3538 8.3125Z" fill="white"/>
</g>
<defs>
<clipPath id="clip0_87_249">
<rect width="30" height="30" fill="white" transform="translate(0 0.5)"/>
</clipPath>
</defs>
</svg>
